<svg xmlns="http://www.w3.org/2000/svg" width="1000" height="1680" viewBox="0 0 1000 1680">
<defs>
<marker id="ar" markerWidth="8" markerHeight="6" refX="7" refY="3" orient="auto"><polygon points="0 0,8 3,0 6" fill="#555"/></marker>
<marker id="ar-r" markerWidth="8" markerHeight="6" refX="7" refY="3" orient="auto"><polygon points="0 0,8 3,0 6" fill="#C0392B"/></marker>
<marker id="ar-g" markerWidth="8" markerHeight="6" refX="7" refY="3" orient="auto"><polygon points="0 0,8 3,0 6" fill="#27AE60"/></marker>
<marker id="ar-p" markerWidth="8" markerHeight="6" refX="7" refY="3" orient="auto"><polygon points="0 0,8 3,0 6" fill="#7D3C98"/></marker>
<marker id="ar-b" markerWidth="8" markerHeight="6" refX="7" refY="3" orient="auto"><polygon points="0 0,8 3,0 6" fill="#2471A3"/></marker>
<marker id="ar-t" markerWidth="8" markerHeight="6" refX="7" refY="3" orient="auto"><polygon points="0 0,8 3,0 6" fill="#117A65"/></marker>
</defs>
<rect width="1000" height="1680" fill="white"/>
<text x="500.0" y="36.0" font-family="Helvetica Neue,Arial,sans-serif" font-size="18" text-anchor="middle" fill="#2C2C2C" font-weight="bold" >Conspecific Carousel Behavioral Apparatus</text>
<text x="500.0" y="54.0" font-family="Helvetica Neue,Arial,sans-serif" font-size="11" text-anchor="middle" fill="#666" font-weight="normal" >Top-down view</text>
<text x="20.0" y="42.0" font-family="Helvetica Neue,Arial,sans-serif" font-size="22" text-anchor="start" fill="#2C2C2C" font-weight="bold" >A</text>
<rect x="160.0" y="80.0" width="300.0" height="220.0" fill="#F6F6F6" stroke="#2C2C2C" stroke-width="2.0" rx="8.0" /><circle cx="160.0" cy="190.0" r="17.5" fill="white" stroke="#2C2C2C" stroke-width="1.2" /><circle cx="160.0" cy="190.0" r="15.0" fill="#D5D8DC" stroke="#2471A3" stroke-width="1.8" /><text x="160.0" y="190.5" font-family="Helvetica Neue,Arial,sans-serif" font-size="13" text-anchor="middle" fill="white" font-weight="bold" >A</text><circle cx="460.0" cy="190.0" r="17.5" fill="white" stroke="#2C2C2C" stroke-width="1.2" /><circle cx="460.0" cy="190.0" r="15.0" fill="#D5D8DC" stroke="#C0392B" stroke-width="1.8" /><text x="460.0" y="190.5" font-family="Helvetica Neue,Arial,sans-serif" font-size="13" text-anchor="middle" fill="white" font-weight="bold" >B</text><circle cx="310.0" cy="80.0" r="17.5" fill="white" stroke="#2C2C2C" stroke-width="1.2" /><circle cx="310.0" cy="80.0" r="15.0" fill="#D5D8DC" stroke="#1E8449" stroke-width="1.8" /><text x="310.0" y="80.5" font-family="Helvetica Neue,Arial,sans-serif" font-size="13" text-anchor="middle" fill="white" font-weight="bold" >C</text><line x1="160.0" y1="300.0" x2="232.5" y2="300.0" stroke="#2C2C2C" stroke-width="2.0"  /><line x1="387.5" y1="300.0" x2="460.0" y2="300.0" stroke="#2C2C2C" stroke-width="2.0"  /><rect x="208.5" y="295.0" width="24.0" height="30.0" fill="#D35400" stroke="#D35400" stroke-width="1" rx="2" opacity="0.65"/><rect x="387.5" y="295.0" width="24.0" height="30.0" fill="#D35400" stroke="#D35400" stroke-width="1" rx="2" opacity="0.65"/><line x1="232.5" y1="300.0" x2="232.5" y2="378.0" stroke="#2C2C2C" stroke-width="1.5"  /><line x1="387.5" y1="300.0" x2="387.5" y2="378.0" stroke="#2C2C2C" stroke-width="1.5"  /><rect x="232.5" y="312.0" width="155.0" height="10.0" fill="#F39C12" stroke="none" stroke-width="1.5" rx="2" opacity="0.4"/><rect x="232.5" y="356.0" width="155.0" height="10.0" fill="#F39C12" stroke="none" stroke-width="1.5" rx="2" opacity="0.85"/><text x="391.5" y="322.0" font-family="Helvetica Neue,Arial,sans-serif" font-size="7.5" text-anchor="start" fill="#7D6808" font-weight="normal" >door sensor</text><text x="391.5" y="366.0" font-family="Helvetica Neue,Arial,sans-serif" font-size="7.5" text-anchor="start" fill="#7D6808" font-weight="normal" >table sensor</text><circle cx="310.0" cy="498.0" r="120.0" fill="#EBF5FB" stroke="#2C2C2C" stroke-width="2.0" /><circle cx="310.0" cy="498.0" r="4.0" fill="#2C2C2C" stroke="none" stroke-width="1.5" /><line x1="310.0" y1="498.0" x2="394.9" y2="413.1" stroke="#888" stroke-width="1.2" stroke-dasharray="5,3" /><line x1="310.0" y1="498.0" x2="394.9" y2="582.9" stroke="#888" stroke-width="1.2" stroke-dasharray="5,3" /><line x1="310.0" y1="498.0" x2="225.1" y2="582.9" stroke="#888" stroke-width="1.2" stroke-dasharray="5,3" /><line x1="310.0" y1="498.0" x2="225.1" y2="413.1" stroke="#888" stroke-width="1.2" stroke-dasharray="5,3" /><ellipse cx="310.0" cy="428.4" rx="10.6" ry="7.0" fill="#C0392B" stroke="none" transform="rotate(270,310.0,428.4)"/><circle cx="310.0" cy="415.2" r="5.7" fill="#C0392B" stroke="none" stroke-width="0" /><circle cx="314.8" cy="415.2" r="3.3" fill="#C0392B" stroke="none" stroke-width="0" /><circle cx="305.2" cy="415.2" r="3.3" fill="#C0392B" stroke="none" stroke-width="0" /><path d="M310.0,439.8 Q316.2,446.0 313.5,452.2" fill="none" stroke="#C0392B" stroke-width="1.4" /><ellipse cx="310.0" cy="567.6" rx="10.6" ry="7.0" fill="#2471A3" stroke="none" transform="rotate(90,310.0,567.6)"/><circle cx="310.0" cy="580.8" r="5.7" fill="#2471A3" stroke="none" stroke-width="0" /><circle cx="305.2" cy="580.8" r="3.3" fill="#2471A3" stroke="none" stroke-width="0" /><circle cx="314.8" cy="580.8" r="3.3" fill="#2471A3" stroke="none" stroke-width="0" /><path d="M310.0,556.2 Q303.8,550.0 306.5,543.8" fill="none" stroke="#2471A3" stroke-width="1.4" /><path d="M262.8,627.7 A138.0,138.0 0 0,1 204.3,409.3" fill="none" stroke="#888" stroke-width="1.2" marker-end="url(#ar)"/>
<text x="560.0" y="100.0" font-family="Helvetica Neue,Arial,sans-serif" font-size="13" text-anchor="start" fill="#2C2C2C" font-weight="bold" >Legend</text>
<line x1="560.0" y1="106.0" x2="900.0" y2="106.0" stroke="#CCC" stroke-width="1"  />
<circle cx="572.0" cy="125.0" r="10.0" fill="#2471A3" stroke="#2471A3" stroke-width="1.5" />
<text x="572.0" y="126.0" font-family="Helvetica Neue,Arial,sans-serif" font-size="9" text-anchor="middle" fill="white" font-weight="bold" >A</text>
<text x="588.0" y="120.0" font-family="Helvetica Neue,Arial,sans-serif" font-size="10" text-anchor="start" fill="#2471A3" font-weight="bold" >Port A</text>
<text x="588.0" y="133.0" font-family="Helvetica Neue,Arial,sans-serif" font-size="9" text-anchor="start" fill="#555" font-weight="normal" >Initiation / choice port</text>
<circle cx="572.0" cy="152.0" r="10.0" fill="#C0392B" stroke="#C0392B" stroke-width="1.5" />
<text x="572.0" y="153.0" font-family="Helvetica Neue,Arial,sans-serif" font-size="9" text-anchor="middle" fill="white" font-weight="bold" >B</text>
<text x="588.0" y="147.0" font-family="Helvetica Neue,Arial,sans-serif" font-size="10" text-anchor="start" fill="#C0392B" font-weight="bold" >Port B</text>
<text x="588.0" y="160.0" font-family="Helvetica Neue,Arial,sans-serif" font-size="9" text-anchor="start" fill="#555" font-weight="normal" >Initiation / choice port</text>
<circle cx="572.0" cy="179.0" r="10.0" fill="#1E8449" stroke="#1E8449" stroke-width="1.5" />
<text x="572.0" y="180.0" font-family="Helvetica Neue,Arial,sans-serif" font-size="9" text-anchor="middle" fill="white" font-weight="bold" >C</text>
<text x="588.0" y="174.0" font-family="Helvetica Neue,Arial,sans-serif" font-size="10" text-anchor="start" fill="#1E8449" font-weight="bold" >Port C</text>
<text x="588.0" y="187.0" font-family="Helvetica Neue,Arial,sans-serif" font-size="9" text-anchor="start" fill="#555" font-weight="normal" >Reward / initiation port</text>
<line x1="560.0" y1="195.0" x2="900.0" y2="195.0" stroke="#EEE" stroke-width="0.8"  />
<rect x="564.0" y="207.0" width="20.0" height="14.0" fill="#D35400" stroke="#D35400" stroke-width="1" rx="2" opacity="0.6"/>
<text x="588.0" y="213.0" font-family="Helvetica Neue,Arial,sans-serif" font-size="10" text-anchor="start" fill="#D35400" font-weight="bold" >Door (shown open)</text>
<text x="588.0" y="225.0" font-family="Helvetica Neue,Arial,sans-serif" font-size="9" text-anchor="start" fill="#555" font-weight="normal" >Slides aside when triggered</text>
<rect x="564.0" y="237.0" width="20.0" height="6.0" fill="#F39C12" stroke="none" stroke-width="1.5" rx="1" opacity="0.5"/>
<text x="588.0" y="243.0" font-family="Helvetica Neue,Arial,sans-serif" font-size="10" text-anchor="start" fill="#7D6808" font-weight="bold" >Door sensor</text>
<text x="588.0" y="255.0" font-family="Helvetica Neue,Arial,sans-serif" font-size="9" text-anchor="start" fill="#555" font-weight="normal" >Detects subject near door</text>
<rect x="564.0" y="265.0" width="20.0" height="6.0" fill="#F39C12" stroke="none" stroke-width="1.5" rx="1" opacity="0.9"/>
<text x="588.0" y="271.0" font-family="Helvetica Neue,Arial,sans-serif" font-size="10" text-anchor="start" fill="#7D6808" font-weight="bold" >Table sensor</text>
<text x="588.0" y="283.0" font-family="Helvetica Neue,Arial,sans-serif" font-size="9" text-anchor="start" fill="#555" font-weight="normal" >Detects subject on carousel platform</text>
<line x1="560.0" y1="294.0" x2="900.0" y2="294.0" stroke="#EEE" stroke-width="0.8"  />
<ellipse cx="572.0" cy="310.0" rx="10.2" ry="6.8" fill="#C0392B" stroke="none" transform="rotate(270,572.0,310.0)"/><circle cx="572.0" cy="297.2" r="5.5" fill="#C0392B" stroke="none" stroke-width="0" /><circle cx="576.7" cy="297.2" r="3.2" fill="#C0392B" stroke="none" stroke-width="0" /><circle cx="567.3" cy="297.2" r="3.2" fill="#C0392B" stroke="none" stroke-width="0" /><path d="M572.0,321.1 Q578.0,327.0 575.4,332.9" fill="none" stroke="#C0392B" stroke-width="1.4" />
<text x="588.0" y="306.0" font-family="Helvetica Neue,Arial,sans-serif" font-size="10" text-anchor="start" fill="#C0392B" font-weight="bold" >Stimulus animal A</text>
<text x="588.0" y="318.0" font-family="Helvetica Neue,Arial,sans-serif" font-size="9" text-anchor="start" fill="#555" font-weight="normal" >Faces arena at 0° position</text>
<ellipse cx="572.0" cy="338.0" rx="10.2" ry="6.8" fill="#2471A3" stroke="none" transform="rotate(90,572.0,338.0)"/><circle cx="572.0" cy="350.8" r="5.5" fill="#2471A3" stroke="none" stroke-width="0" /><circle cx="567.3" cy="350.8" r="3.2" fill="#2471A3" stroke="none" stroke-width="0" /><circle cx="576.7" cy="350.8" r="3.2" fill="#2471A3" stroke="none" stroke-width="0" /><path d="M572.0,326.9 Q566.0,321.0 568.6,315.1" fill="none" stroke="#2471A3" stroke-width="1.4" />
<text x="588.0" y="334.0" font-family="Helvetica Neue,Arial,sans-serif" font-size="10" text-anchor="start" fill="#2471A3" font-weight="bold" >Stimulus animal B</text>
<text x="588.0" y="346.0" font-family="Helvetica Neue,Arial,sans-serif" font-size="9" text-anchor="start" fill="#555" font-weight="normal" >Faces away at 180° position</text>
<ellipse cx="572.0" cy="366.0" rx="10.2" ry="6.8" fill="#555" stroke="none" transform="rotate(0,572.0,366.0)"/><circle cx="584.8" cy="366.0" r="5.5" fill="#555" stroke="none" stroke-width="0" /><circle cx="584.8" cy="370.7" r="3.2" fill="#555" stroke="none" stroke-width="0" /><circle cx="584.8" cy="361.3" r="3.2" fill="#555" stroke="none" stroke-width="0" /><path d="M561.0,366.0 Q555.0,371.9 549.1,369.4" fill="none" stroke="#555" stroke-width="1.4" />
<text x="588.0" y="362.0" font-family="Helvetica Neue,Arial,sans-serif" font-size="10" text-anchor="start" fill="#555" font-weight="bold" >Subject animal</text>
<text x="588.0" y="374.0" font-family="Helvetica Neue,Arial,sans-serif" font-size="9" text-anchor="start" fill="#555" font-weight="normal" >Freely moving in apparatus</text>
<line x1="560.0" y1="385.0" x2="900.0" y2="385.0" stroke="#EEE" stroke-width="0.8"  />
<text x="560.0" y="398.0" font-family="Helvetica Neue,Arial,sans-serif" font-size="9" text-anchor="start" fill="#777" font-weight="normal" >Carousel dividers at 45°, 135°, 225°, 315°</text>
<text x="560.0" y="410.0" font-family="Helvetica Neue,Arial,sans-serif" font-size="9" text-anchor="start" fill="#777" font-weight="normal" >Stimulus animals always 180° apart</text>
<text x="310.0" y="360.0" font-family="Helvetica Neue,Arial,sans-serif" font-size="8" text-anchor="middle" fill="#666" font-weight="normal" >0°</text>
<text x="448.0" y="498.0" font-family="Helvetica Neue,Arial,sans-serif" font-size="8" text-anchor="middle" fill="#666" font-weight="normal" >90°</text>
<text x="310.0" y="636.0" font-family="Helvetica Neue,Arial,sans-serif" font-size="8" text-anchor="middle" fill="#666" font-weight="normal" >180°</text>
<text x="172.0" y="498.0" font-family="Helvetica Neue,Arial,sans-serif" font-size="8" text-anchor="middle" fill="#666" font-weight="normal" >270°</text>
<line x1="0.0" y1="688.0" x2="1000.0" y2="688.0" stroke="#CCCCCC" stroke-width="1"  />
<line x1="500.0" y1="688.0" x2="500.0" y2="1680.0" stroke="#CCCCCC" stroke-width="1"  />
<line x1="0.0" y1="1184.0" x2="1000.0" y2="1184.0" stroke="#CCCCCC" stroke-width="1"  />
<rect x="0.0" y="688.0" width="500.0" height="496.0" fill="none" stroke="none" stroke-width="1.5" rx="0" />
<text x="22.0" y="716.0" font-family="Helvetica Neue,Arial,sans-serif" font-size="20" text-anchor="start" fill="#2C2C2C" font-weight="bold" >B</text>
<text x="250.0" y="718.0" font-family="Helvetica Neue,Arial,sans-serif" font-size="15" text-anchor="middle" fill="#C0392B" font-weight="bold" >Social Reward</text>
<text x="250.0" y="735.0" font-family="Helvetica Neue,Arial,sans-serif" font-size="9.5" text-anchor="middle" fill="#666" font-weight="normal" >One conspecific predicts reward; other does not</text>
<line x1="15.0" y1="742.0" x2="485.0" y2="742.0" stroke="#DDD" stroke-width="1"  />
<rect x="108.0" y="756.0" width="204.0" height="149.6" fill="#F6F6F6" stroke="#2C2C2C" stroke-width="1.36" rx="5.44" /><circle cx="108.0" cy="830.8" r="12.7" fill="white" stroke="#2C2C2C" stroke-width="1.2" /><circle cx="108.0" cy="830.8" r="10.2" fill="#2471A3" stroke="#2471A3" stroke-width="1.8" /><text x="108.0" y="831.3" font-family="Helvetica Neue,Arial,sans-serif" font-size="9" text-anchor="middle" fill="white" font-weight="bold" >A</text><circle cx="312.0" cy="830.8" r="12.7" fill="white" stroke="#2C2C2C" stroke-width="1.2" /><circle cx="312.0" cy="830.8" r="10.2" fill="#D5D8DC" stroke="#C0392B" stroke-width="1.8" /><text x="312.0" y="831.3" font-family="Helvetica Neue,Arial,sans-serif" font-size="9" text-anchor="middle" fill="white" font-weight="bold" >B</text><circle cx="210.0" cy="756.0" r="12.7" fill="white" stroke="#2C2C2C" stroke-width="1.2" /><circle cx="210.0" cy="756.0" r="10.2" fill="#1E8449" stroke="#1E8449" stroke-width="1.8" /><text x="210.0" y="756.5" font-family="Helvetica Neue,Arial,sans-serif" font-size="9" text-anchor="middle" fill="white" font-weight="bold" >C</text><line x1="108.0" y1="905.6" x2="157.3" y2="905.6" stroke="#2C2C2C" stroke-width="1.36"  /><line x1="262.7" y1="905.6" x2="312.0" y2="905.6" stroke="#2C2C2C" stroke-width="1.36"  /><rect x="141.0" y="902.2" width="16.3" height="20.4" fill="#D35400" stroke="#D35400" stroke-width="1" rx="2" opacity="0.65"/><rect x="262.7" y="902.2" width="16.3" height="20.4" fill="#D35400" stroke="#D35400" stroke-width="1" rx="2" opacity="0.65"/><line x1="157.3" y1="905.6" x2="157.3" y2="958.6" stroke="#2C2C2C" stroke-width="1.02"  /><line x1="262.7" y1="905.6" x2="262.7" y2="958.6" stroke="#2C2C2C" stroke-width="1.02"  /><rect x="157.3" y="913.8" width="105.4" height="6.8" fill="#F39C12" stroke="none" stroke-width="1.5" rx="2" opacity="0.4"/><rect x="157.3" y="943.7" width="105.4" height="6.8" fill="#F39C12" stroke="none" stroke-width="1.5" rx="2" opacity="0.85"/><circle cx="210.0" cy="1040.2" r="81.6" fill="#EBF5FB" stroke="#2C2C2C" stroke-width="1.36" /><circle cx="210.0" cy="1040.2" r="2.7" fill="#2C2C2C" stroke="none" stroke-width="1.5" /><line x1="210.0" y1="1040.2" x2="267.7" y2="982.5" stroke="#888" stroke-width="0.8160000000000001" stroke-dasharray="5,3" /><line x1="210.0" y1="1040.2" x2="267.7" y2="1097.9" stroke="#888" stroke-width="0.8160000000000001" stroke-dasharray="5,3" /><line x1="210.0" y1="1040.2" x2="152.3" y2="1097.9" stroke="#888" stroke-width="0.8160000000000001" stroke-dasharray="5,3" /><line x1="210.0" y1="1040.2" x2="152.3" y2="982.5" stroke="#888" stroke-width="0.8160000000000001" stroke-dasharray="5,3" /><ellipse cx="210.0" cy="992.9" rx="7.2" ry="4.8" fill="#C0392B" stroke="none" transform="rotate(270,210.0,992.9)"/><circle cx="210.0" cy="983.9" r="3.9" fill="#C0392B" stroke="none" stroke-width="0" /><circle cx="213.3" cy="983.9" r="2.3" fill="#C0392B" stroke="none" stroke-width="0" /><circle cx="206.7" cy="983.9" r="2.3" fill="#C0392B" stroke="none" stroke-width="0" /><path d="M210.0,1000.7 Q214.2,1004.9 212.4,1009.1" fill="none" stroke="#C0392B" stroke-width="1.0" /><ellipse cx="210.0" cy="1087.6" rx="7.2" ry="4.8" fill="#AAA" stroke="none" transform="rotate(90,210.0,1087.6)"/><circle cx="210.0" cy="1096.5" r="3.9" fill="#AAA" stroke="none" stroke-width="0" /><circle cx="206.7" cy="1096.5" r="2.3" fill="#AAA" stroke="none" stroke-width="0" /><circle cx="213.3" cy="1096.5" r="2.3" fill="#AAA" stroke="none" stroke-width="0" /><path d="M210.0,1079.8 Q205.8,1075.6 207.6,1071.4" fill="none" stroke="#AAA" stroke-width="1.0" /><ellipse cx="210.0" cy="932.1" rx="6.9" ry="4.6" fill="#555" stroke="none" transform="rotate(90,210.0,932.1)"/><circle cx="210.0" cy="940.8" r="3.8" fill="#555" stroke="none" stroke-width="0" /><circle cx="206.8" cy="940.8" r="2.2" fill="#555" stroke="none" stroke-width="0" /><circle cx="213.2" cy="940.8" r="2.2" fill="#555" stroke="none" stroke-width="0" /><path d="M210.0,924.6 Q206.0,920.6 207.7,916.5" fill="none" stroke="#555" stroke-width="0.9" />
<text x="266.7" y="921.8" font-family="Helvetica Neue,Arial,sans-serif" font-size="7.5" text-anchor="start" fill="#7D6808" font-weight="normal" >door sensor</text>
<text x="266.7" y="951.7" font-family="Helvetica Neue,Arial,sans-serif" font-size="7.5" text-anchor="start" fill="#7D6808" font-weight="normal" >table sensor</text>
<text x="210.0" y="970.1" font-family="Helvetica Neue,Arial,sans-serif" font-size="8" text-anchor="middle" fill="#C0392B" font-weight="bold" >Rewarded</text>
<text x="210.0" y="1112.0" font-family="Helvetica Neue,Arial,sans-serif" font-size="8" text-anchor="middle" fill="#888" font-weight="normal" >Unrewarded</text>
<text x="340.0" y="760.0" font-family="Helvetica Neue,Arial,sans-serif" font-size="9.5" text-anchor="start" fill="#2C2C2C" font-weight="bold" >Trial sequence:</text>
<rect x="340.0" y="778.0" width="148.0" height="28.0" fill="#2471A322" stroke="#2471A3" stroke-width="1.5" rx="4" />
<text x="414.0" y="790.0" font-family="Helvetica Neue,Arial,sans-serif" font-size="9" text-anchor="middle" fill="#2C2C2C" font-weight="bold" >① Poke A</text>
<text x="414.0" y="801.0" font-family="Helvetica Neue,Arial,sans-serif" font-size="8" text-anchor="middle" fill="#555" font-weight="normal" >Initiation port</text>
<line x1="414.0" y1="807.0" x2="414.0" y2="811.0" stroke="#555" stroke-width="1.5" marker-end="url(#ar)"/>
<rect x="340.0" y="812.0" width="148.0" height="28.0" fill="#D3540022" stroke="#D35400" stroke-width="1.5" rx="4" />
<text x="414.0" y="824.0" font-family="Helvetica Neue,Arial,sans-serif" font-size="9" text-anchor="middle" fill="#2C2C2C" font-weight="bold" >② Door opens</text>
<line x1="414.0" y1="841.0" x2="414.0" y2="845.0" stroke="#555" stroke-width="1.5" marker-end="url(#ar)"/>
<rect x="340.0" y="846.0" width="148.0" height="28.0" fill="#F39C1222" stroke="#F39C12" stroke-width="1.5" rx="4" />
<text x="414.0" y="858.0" font-family="Helvetica Neue,Arial,sans-serif" font-size="9" text-anchor="middle" fill="#2C2C2C" font-weight="bold" >③ Hold table sensor</text>
<text x="414.0" y="869.0" font-family="Helvetica Neue,Arial,sans-serif" font-size="8" text-anchor="middle" fill="#555" font-weight="normal" >Sensory minimum</text>
<line x1="414.0" y1="875.0" x2="414.0" y2="879.0" stroke="#555" stroke-width="1.5" marker-end="url(#ar)"/>
<rect x="340.0" y="880.0" width="148.0" height="28.0" fill="#AAA22" stroke="#AAA" stroke-width="1.5" rx="4" />
<text x="414.0" y="892.0" font-family="Helvetica Neue,Arial,sans-serif" font-size="9" text-anchor="middle" fill="#2C2C2C" font-weight="bold" >④ Leave sensor</text>
<line x1="414.0" y1="909.0" x2="414.0" y2="913.0" stroke="#555" stroke-width="1.5" marker-end="url(#ar)"/>
<rect x="340.0" y="914.0" width="148.0" height="28.0" fill="#1E844922" stroke="#1E8449" stroke-width="1.5" rx="4" />
<text x="414.0" y="926.0" font-family="Helvetica Neue,Arial,sans-serif" font-size="9" text-anchor="middle" fill="#2C2C2C" font-weight="bold" >⑤ Poke C</text>
<text x="414.0" y="937.0" font-family="Helvetica Neue,Arial,sans-serif" font-size="8" text-anchor="middle" fill="#555" font-weight="normal" >Reward port</text>
<text x="414.0" y="970.0" font-family="Helvetica Neue,Arial,sans-serif" font-size="9" text-anchor="middle" fill="#888" font-weight="bold" >Outcome:</text>
<rect x="340.0" y="984.0" width="65.0" height="26.0" fill="#27AE6022" stroke="#27AE60" stroke-width="1.5" rx="4" />
<text x="372.0" y="1001.0" font-family="Helvetica Neue,Arial,sans-serif" font-size="8.5" text-anchor="middle" fill="#27AE60" font-weight="bold" >✓ Reward</text>
<rect x="420.0" y="984.0" width="65.0" height="26.0" fill="#C0392B22" stroke="#C0392B" stroke-width="1.5" rx="4" />
<text x="452.0" y="1001.0" font-family="Helvetica Neue,Arial,sans-serif" font-size="8.5" text-anchor="middle" fill="#C0392B" font-weight="bold" >✗ No reward</text>
<text x="340.0" y="1024.0" font-family="Helvetica Neue,Arial,sans-serif" font-size="8" text-anchor="start" fill="#888" font-weight="normal" >(rewarded position)</text>
<text x="488.0" y="1024.0" font-family="Helvetica Neue,Arial,sans-serif" font-size="8" text-anchor="end" fill="#888" font-weight="normal" >(unrewarded)</text>
<rect x="500.0" y="688.0" width="500.0" height="496.0" fill="none" stroke="none" stroke-width="1.5" rx="0" />
<text x="522.0" y="716.0" font-family="Helvetica Neue,Arial,sans-serif" font-size="20" text-anchor="start" fill="#2C2C2C" font-weight="bold" >C</text>
<text x="750.0" y="718.0" font-family="Helvetica Neue,Arial,sans-serif" font-size="15" text-anchor="middle" fill="#7D3C98" font-weight="bold" >Social Reward 2AFC</text>
<text x="750.0" y="735.0" font-family="Helvetica Neue,Arial,sans-serif" font-size="9.5" text-anchor="middle" fill="#666" font-weight="normal" >Subject discriminates between two conspecifics via nose-port choice</text>
<line x1="515.0" y1="742.0" x2="985.0" y2="742.0" stroke="#DDD" stroke-width="1"  />
<rect x="608.0" y="756.0" width="204.0" height="149.6" fill="#F6F6F6" stroke="#2C2C2C" stroke-width="1.36" rx="5.44" /><circle cx="608.0" cy="830.8" r="12.7" fill="white" stroke="#2C2C2C" stroke-width="1.2" /><circle cx="608.0" cy="830.8" r="10.2" fill="#2471A3" stroke="#2471A3" stroke-width="1.8" /><text x="608.0" y="831.3" font-family="Helvetica Neue,Arial,sans-serif" font-size="9" text-anchor="middle" fill="white" font-weight="bold" >A</text><circle cx="812.0" cy="830.8" r="12.7" fill="white" stroke="#2C2C2C" stroke-width="1.2" /><circle cx="812.0" cy="830.8" r="10.2" fill="#C0392B" stroke="#C0392B" stroke-width="1.8" /><text x="812.0" y="831.3" font-family="Helvetica Neue,Arial,sans-serif" font-size="9" text-anchor="middle" fill="white" font-weight="bold" >B</text><circle cx="710.0" cy="756.0" r="12.7" fill="white" stroke="#2C2C2C" stroke-width="1.2" /><circle cx="710.0" cy="756.0" r="10.2" fill="#1E8449" stroke="#1E8449" stroke-width="1.8" /><text x="710.0" y="756.5" font-family="Helvetica Neue,Arial,sans-serif" font-size="9" text-anchor="middle" fill="white" font-weight="bold" >C</text><line x1="608.0" y1="905.6" x2="657.3" y2="905.6" stroke="#2C2C2C" stroke-width="1.36"  /><line x1="762.7" y1="905.6" x2="812.0" y2="905.6" stroke="#2C2C2C" stroke-width="1.36"  /><rect x="641.0" y="902.2" width="16.3" height="20.4" fill="#D35400" stroke="#D35400" stroke-width="1" rx="2" opacity="0.65"/><rect x="762.7" y="902.2" width="16.3" height="20.4" fill="#D35400" stroke="#D35400" stroke-width="1" rx="2" opacity="0.65"/><line x1="657.3" y1="905.6" x2="657.3" y2="958.6" stroke="#2C2C2C" stroke-width="1.02"  /><line x1="762.7" y1="905.6" x2="762.7" y2="958.6" stroke="#2C2C2C" stroke-width="1.02"  /><rect x="657.3" y="913.8" width="105.4" height="6.8" fill="#F39C12" stroke="none" stroke-width="1.5" rx="2" opacity="0.4"/><rect x="657.3" y="943.7" width="105.4" height="6.8" fill="#F39C12" stroke="none" stroke-width="1.5" rx="2" opacity="0.85"/><circle cx="710.0" cy="1040.2" r="81.6" fill="#EBF5FB" stroke="#2C2C2C" stroke-width="1.36" /><circle cx="710.0" cy="1040.2" r="2.7" fill="#2C2C2C" stroke="none" stroke-width="1.5" /><line x1="710.0" y1="1040.2" x2="767.7" y2="982.5" stroke="#888" stroke-width="0.8160000000000001" stroke-dasharray="5,3" /><line x1="710.0" y1="1040.2" x2="767.7" y2="1097.9" stroke="#888" stroke-width="0.8160000000000001" stroke-dasharray="5,3" /><line x1="710.0" y1="1040.2" x2="652.3" y2="1097.9" stroke="#888" stroke-width="0.8160000000000001" stroke-dasharray="5,3" /><line x1="710.0" y1="1040.2" x2="652.3" y2="982.5" stroke="#888" stroke-width="0.8160000000000001" stroke-dasharray="5,3" /><ellipse cx="710.0" cy="992.9" rx="7.2" ry="4.8" fill="#7D3C98" stroke="none" transform="rotate(270,710.0,992.9)"/><circle cx="710.0" cy="983.9" r="3.9" fill="#7D3C98" stroke="none" stroke-width="0" /><circle cx="713.3" cy="983.9" r="2.3" fill="#7D3C98" stroke="none" stroke-width="0" /><circle cx="706.7" cy="983.9" r="2.3" fill="#7D3C98" stroke="none" stroke-width="0" /><path d="M710.0,1000.7 Q714.2,1004.9 712.4,1009.1" fill="none" stroke="#7D3C98" stroke-width="1.0" /><ellipse cx="710.0" cy="1087.6" rx="7.2" ry="4.8" fill="#E67E22" stroke="none" transform="rotate(90,710.0,1087.6)"/><circle cx="710.0" cy="1096.5" r="3.9" fill="#E67E22" stroke="none" stroke-width="0" /><circle cx="706.7" cy="1096.5" r="2.3" fill="#E67E22" stroke="none" stroke-width="0" /><circle cx="713.3" cy="1096.5" r="2.3" fill="#E67E22" stroke="none" stroke-width="0" /><path d="M710.0,1079.8 Q705.8,1075.6 707.6,1071.4" fill="none" stroke="#E67E22" stroke-width="1.0" /><path d="M677.9,1128.4 A93.8,93.8 0 0,1 638.1,979.9" fill="none" stroke="#888" stroke-width="0.8160000000000001" marker-end="url(#ar)"/>
<ellipse cx="710.0" cy="830.8" rx="6.9" ry="4.6" fill="#555" stroke="none" transform="rotate(270,710.0,830.8)"/><circle cx="710.0" cy="822.1" r="3.8" fill="#555" stroke="none" stroke-width="0" /><circle cx="713.2" cy="822.1" r="2.2" fill="#555" stroke="none" stroke-width="0" /><circle cx="706.8" cy="822.1" r="2.2" fill="#555" stroke="none" stroke-width="0" /><path d="M710.0,838.3 Q714.0,842.4 712.3,846.4" fill="none" stroke="#555" stroke-width="0.9" />
<text x="766.7" y="921.8" font-family="Helvetica Neue,Arial,sans-serif" font-size="7.5" text-anchor="start" fill="#7D6808" font-weight="normal" >door sensor</text>
<text x="766.7" y="951.7" font-family="Helvetica Neue,Arial,sans-serif" font-size="7.5" text-anchor="start" fill="#7D6808" font-weight="normal" >table sensor</text>
<text x="710.0" y="970.1" font-family="Helvetica Neue,Arial,sans-serif" font-size="8" text-anchor="middle" fill="#7D3C98" font-weight="bold" >Con A</text>
<text x="710.0" y="1112.0" font-family="Helvetica Neue,Arial,sans-serif" font-size="8" text-anchor="middle" fill="#E67E22" font-weight="bold" >Con B</text>
<text x="840.0" y="760.0" font-family="Helvetica Neue,Arial,sans-serif" font-size="9.5" text-anchor="start" fill="#2C2C2C" font-weight="bold" >Trial sequence:</text>
<rect x="840.0" y="778.0" width="148.0" height="28.0" fill="#1E844922" stroke="#1E8449" stroke-width="1.5" rx="4" />
<text x="914.0" y="790.0" font-family="Helvetica Neue,Arial,sans-serif" font-size="9" text-anchor="middle" fill="#2C2C2C" font-weight="bold" >① Poke C</text>
<text x="914.0" y="801.0" font-family="Helvetica Neue,Arial,sans-serif" font-size="8" text-anchor="middle" fill="#555" font-weight="normal" >Initiation</text>
<line x1="914.0" y1="807.0" x2="914.0" y2="811.0" stroke="#555" stroke-width="1.5" marker-end="url(#ar)"/>
<rect x="840.0" y="812.0" width="148.0" height="28.0" fill="#D3540022" stroke="#D35400" stroke-width="1.5" rx="4" />
<text x="914.0" y="824.0" font-family="Helvetica Neue,Arial,sans-serif" font-size="9" text-anchor="middle" fill="#2C2C2C" font-weight="bold" >② Door opens</text>
<text x="914.0" y="835.0" font-family="Helvetica Neue,Arial,sans-serif" font-size="8" text-anchor="middle" fill="#555" font-weight="normal" >Carousel already positioned</text>
<line x1="914.0" y1="841.0" x2="914.0" y2="845.0" stroke="#555" stroke-width="1.5" marker-end="url(#ar)"/>
<rect x="840.0" y="846.0" width="148.0" height="28.0" fill="#F39C1222" stroke="#F39C12" stroke-width="1.5" rx="4" />
<text x="914.0" y="858.0" font-family="Helvetica Neue,Arial,sans-serif" font-size="9" text-anchor="middle" fill="#2C2C2C" font-weight="bold" >③ Sample conspecific</text>
<text x="914.0" y="869.0" font-family="Helvetica Neue,Arial,sans-serif" font-size="8" text-anchor="middle" fill="#555" font-weight="normal" >Hold table sensor</text>
<line x1="914.0" y1="875.0" x2="914.0" y2="879.0" stroke="#555" stroke-width="1.5" marker-end="url(#ar)"/>
<rect x="840.0" y="880.0" width="148.0" height="28.0" fill="#AAA22" stroke="#AAA" stroke-width="1.5" rx="4" />
<text x="914.0" y="892.0" font-family="Helvetica Neue,Arial,sans-serif" font-size="9" text-anchor="middle" fill="#2C2C2C" font-weight="bold" >④ Leave sensor</text>
<line x1="914.0" y1="909.0" x2="914.0" y2="913.0" stroke="#555" stroke-width="1.5" marker-end="url(#ar)"/>
<rect x="840.0" y="914.0" width="148.0" height="28.0" fill="#7D3C9822" stroke="#7D3C98" stroke-width="1.5" rx="4" />
<text x="914.0" y="926.0" font-family="Helvetica Neue,Arial,sans-serif" font-size="9" text-anchor="middle" fill="#2C2C2C" font-weight="bold" >⑤ Poke A or B</text>
<text x="914.0" y="937.0" font-family="Helvetica Neue,Arial,sans-serif" font-size="8" text-anchor="middle" fill="#555" font-weight="normal" >Choice ports both lit</text>
<text x="840.0" y="960.0" font-family="Helvetica Neue,Arial,sans-serif" font-size="9" text-anchor="start" fill="#888" font-weight="bold" >Phase progression:</text>
<text x="840.0" y="976.0" font-family="Helvetica Neue,Arial,sans-serif" font-size="8.5" text-anchor="start" fill="#555" font-weight="normal" >Forced: 1 LED lit (correct side only)</text>
<text x="840.0" y="994.0" font-family="Helvetica Neue,Arial,sans-serif" font-size="8.5" text-anchor="start" fill="#555" font-weight="normal" >Mixed: 75→50→25% forced trials</text>
<text x="840.0" y="1012.0" font-family="Helvetica Neue,Arial,sans-serif" font-size="8.5" text-anchor="start" fill="#555" font-weight="normal" >Free: Both LEDs lit; choose freely</text>
<rect x="0.0" y="1184.0" width="500.0" height="496.0" fill="none" stroke="none" stroke-width="1.5" rx="0" />
<text x="22.0" y="1212.0" font-family="Helvetica Neue,Arial,sans-serif" font-size="20" text-anchor="start" fill="#2C2C2C" font-weight="bold" >D</text>
<text x="250.0" y="1214.0" font-family="Helvetica Neue,Arial,sans-serif" font-size="15" text-anchor="middle" fill="#1A5276" font-weight="bold" >Social Choice</text>
<text x="250.0" y="1231.0" font-family="Helvetica Neue,Arial,sans-serif" font-size="9.5" text-anchor="middle" fill="#666" font-weight="normal" >Subject chooses between sucrose reward and social interaction</text>
<line x1="15.0" y1="1238.0" x2="485.0" y2="1238.0" stroke="#DDD" stroke-width="1"  />
<rect x="108.0" y="1252.0" width="204.0" height="149.6" fill="#F6F6F6" stroke="#2C2C2C" stroke-width="1.36" rx="5.44" /><circle cx="108.0" cy="1326.8" r="12.7" fill="white" stroke="#2C2C2C" stroke-width="1.2" /><circle cx="108.0" cy="1326.8" r="10.2" fill="#2471A3" stroke="#2471A3" stroke-width="1.8" /><text x="108.0" y="1327.3" font-family="Helvetica Neue,Arial,sans-serif" font-size="9" text-anchor="middle" fill="white" font-weight="bold" >A</text><circle cx="312.0" cy="1326.8" r="12.7" fill="white" stroke="#2C2C2C" stroke-width="1.2" /><circle cx="312.0" cy="1326.8" r="10.2" fill="#C0392B" stroke="#C0392B" stroke-width="1.8" /><text x="312.0" y="1327.3" font-family="Helvetica Neue,Arial,sans-serif" font-size="9" text-anchor="middle" fill="white" font-weight="bold" >B</text><circle cx="210.0" cy="1252.0" r="12.7" fill="white" stroke="#2C2C2C" stroke-width="1.2" /><circle cx="210.0" cy="1252.0" r="10.2" fill="#1E8449" stroke="#1E8449" stroke-width="1.8" /><text x="210.0" y="1252.5" font-family="Helvetica Neue,Arial,sans-serif" font-size="9" text-anchor="middle" fill="white" font-weight="bold" >C</text><line x1="108.0" y1="1401.6" x2="157.3" y2="1401.6" stroke="#2C2C2C" stroke-width="1.36"  /><line x1="262.7" y1="1401.6" x2="312.0" y2="1401.6" stroke="#2C2C2C" stroke-width="1.36"  /><line x1="157.3" y1="1401.6" x2="262.7" y2="1401.6" stroke="#D35400" stroke-width="2.72"  /><line x1="157.3" y1="1401.6" x2="157.3" y2="1454.6" stroke="#2C2C2C" stroke-width="1.02"  /><line x1="262.7" y1="1401.6" x2="262.7" y2="1454.6" stroke="#2C2C2C" stroke-width="1.02"  /><rect x="157.3" y="1409.8" width="105.4" height="6.8" fill="#F39C12" stroke="none" stroke-width="1.5" rx="2" opacity="0.4"/><rect x="157.3" y="1439.7" width="105.4" height="6.8" fill="#F39C12" stroke="none" stroke-width="1.5" rx="2" opacity="0.85"/><circle cx="210.0" cy="1536.2" r="81.6" fill="#EBF5FB" stroke="#2C2C2C" stroke-width="1.36" /><circle cx="210.0" cy="1536.2" r="2.7" fill="#2C2C2C" stroke="none" stroke-width="1.5" /><line x1="210.0" y1="1536.2" x2="267.7" y2="1478.5" stroke="#888" stroke-width="0.8160000000000001" stroke-dasharray="5,3" /><line x1="210.0" y1="1536.2" x2="267.7" y2="1593.9" stroke="#888" stroke-width="0.8160000000000001" stroke-dasharray="5,3" /><line x1="210.0" y1="1536.2" x2="152.3" y2="1593.9" stroke="#888" stroke-width="0.8160000000000001" stroke-dasharray="5,3" /><line x1="210.0" y1="1536.2" x2="152.3" y2="1478.5" stroke="#888" stroke-width="0.8160000000000001" stroke-dasharray="5,3" /><ellipse cx="210.0" cy="1488.9" rx="7.2" ry="4.8" fill="#7D3C98" stroke="none" transform="rotate(270,210.0,1488.9)"/><circle cx="210.0" cy="1479.9" r="3.9" fill="#7D3C98" stroke="none" stroke-width="0" /><circle cx="213.3" cy="1479.9" r="2.3" fill="#7D3C98" stroke="none" stroke-width="0" /><circle cx="206.7" cy="1479.9" r="2.3" fill="#7D3C98" stroke="none" stroke-width="0" /><path d="M210.0,1496.7 Q214.2,1500.9 212.4,1505.1" fill="none" stroke="#7D3C98" stroke-width="1.0" />
<text x="210.0" y="1411.6" font-family="Helvetica Neue,Arial,sans-serif" font-size="7.5" text-anchor="middle" fill="#D35400" font-weight="normal" >door closed</text>
<path d="M108.0,1326.8 Q78.0,1266.8 210.0,1232.0" fill="none" stroke="#2471A3" stroke-width="1.8" dash="4,3" marker-end="url(#ar-b)"/>
<text x="76.0" y="1261.8" font-family="Helvetica Neue,Arial,sans-serif" font-size="8.5" text-anchor="middle" fill="#2471A3" font-weight="bold" >Sucrose</text>
<text x="76.0" y="1273.8" font-family="Helvetica Neue,Arial,sans-serif" font-size="7.5" text-anchor="middle" fill="#2471A3" font-weight="normal" >path → C → reward</text>
<path d="M312.0,1326.8 Q340.0,1406.8 301.6,1536.2" fill="none" stroke="#7D3C98" stroke-width="1.8" marker-end="url(#ar-p)"/>
<text x="305.6" y="1524.2" font-family="Helvetica Neue,Arial,sans-serif" font-size="8.5" text-anchor="start" fill="#7D3C98" font-weight="bold" >Social path</text>
<text x="305.6" y="1536.2" font-family="Helvetica Neue,Arial,sans-serif" font-size="7.5" text-anchor="start" fill="#7D3C98" font-weight="normal" >door opens → 10 s</text>
<text x="305.6" y="1548.2" font-family="Helvetica Neue,Arial,sans-serif" font-size="7.5" text-anchor="start" fill="#7D3C98" font-weight="normal" >social exposure</text>
<text x="210.0" y="1466.9" font-family="Helvetica Neue,Arial,sans-serif" font-size="8" text-anchor="middle" fill="#7D3C98" font-weight="bold" >Social</text>
<text x="210.0" y="1477.5" font-family="Helvetica Neue,Arial,sans-serif" font-size="8" text-anchor="middle" fill="#7D3C98" font-weight="normal" >stimulus</text>
<text x="106.0" y="1306.8" font-family="Helvetica Neue,Arial,sans-serif" font-size="8" text-anchor="end" fill="#2471A3" font-weight="bold" >Port A</text>
<text x="106.0" y="1318.8" font-family="Helvetica Neue,Arial,sans-serif" font-size="8" text-anchor="end" fill="#2471A3" font-weight="normal" >sucrose</text>
<text x="314.0" y="1306.8" font-family="Helvetica Neue,Arial,sans-serif" font-size="8" text-anchor="start" fill="#C0392B" font-weight="bold" >Port B</text>
<text x="314.0" y="1318.8" font-family="Helvetica Neue,Arial,sans-serif" font-size="8" text-anchor="start" fill="#C0392B" font-weight="normal" >social</text>
<text x="340.0" y="1256.0" font-family="Helvetica Neue,Arial,sans-serif" font-size="9.5" text-anchor="start" fill="#2C2C2C" font-weight="bold" >Two-choice trial:</text>
<text x="340.0" y="1274.0" font-family="Helvetica Neue,Arial,sans-serif" font-size="9" text-anchor="start" fill="#555" font-weight="normal" >Both Port A and Port B LEDs light</text>
<text x="340.0" y="1287.0" font-family="Helvetica Neue,Arial,sans-serif" font-size="9" text-anchor="start" fill="#555" font-weight="normal" >simultaneously. Subject chooses.</text>
<rect x="340.0" y="1302.0" width="148.0" height="44.0" fill="#2471A318" stroke="#2471A3" stroke-width="1.5" rx="4" />
<text x="414.0" y="1317.0" font-family="Helvetica Neue,Arial,sans-serif" font-size="9" text-anchor="middle" fill="#2471A3" font-weight="bold" >Poke A → sucrose path</text>
<text x="414.0" y="1332.0" font-family="Helvetica Neue,Arial,sans-serif" font-size="8" text-anchor="middle" fill="#444" font-weight="normal" >Port C LED on → poke C → reward</text>
<rect x="340.0" y="1354.0" width="148.0" height="44.0" fill="#7D3C9818" stroke="#7D3C98" stroke-width="1.5" rx="4" />
<text x="414.0" y="1369.0" font-family="Helvetica Neue,Arial,sans-serif" font-size="9" text-anchor="middle" fill="#7D3C98" font-weight="bold" >Poke B → social path</text>
<text x="414.0" y="1384.0" font-family="Helvetica Neue,Arial,sans-serif" font-size="8" text-anchor="middle" fill="#444" font-weight="normal" >Carousel rotates → 10 s exposure</text>
<rect x="340.0" y="1406.0" width="148.0" height="20.0" fill="#FFF8E1" stroke="#F39C12" stroke-width="1.2" rx="3" />
<text x="414.0" y="1420.0" font-family="Helvetica Neue,Arial,sans-serif" font-size="8.5" text-anchor="middle" fill="#7D6808" font-weight="normal" >No reward on social path</text>
<line x1="340.0" y1="1436.0" x2="488.0" y2="1436.0" stroke="#DDD" stroke-width="0.8"  />
<text x="340.0" y="1449.0" font-family="Helvetica Neue,Arial,sans-serif" font-size="9" text-anchor="start" fill="#888" font-weight="bold" >Anti-bias correction:</text>
<text x="340.0" y="1462.0" font-family="Helvetica Neue,Arial,sans-serif" font-size="8.5" text-anchor="start" fill="#777" font-weight="normal" >≥10 consecutive same choices</text>
<text x="340.0" y="1475.0" font-family="Helvetica Neue,Arial,sans-serif" font-size="8.5" text-anchor="start" fill="#777" font-weight="normal" >→ forced switch next trial</text>
<line x1="340.0" y1="1489.0" x2="488.0" y2="1489.0" stroke="#DDD" stroke-width="0.8"  />
<text x="340.0" y="1502.0" font-family="Helvetica Neue,Arial,sans-serif" font-size="9" text-anchor="start" fill="#888" font-weight="bold" >Training phases:</text>
<text x="340.0" y="1516.0" font-family="Helvetica Neue,Arial,sans-serif" font-size="8.5" text-anchor="start" fill="#666" font-weight="normal" >Learning:  Port C autoshaping</text>
<text x="340.0" y="1532.0" font-family="Helvetica Neue,Arial,sans-serif" font-size="8.5" text-anchor="start" fill="#666" font-weight="normal" >One-choice:  Port A → Port C</text>
<text x="340.0" y="1548.0" font-family="Helvetica Neue,Arial,sans-serif" font-size="8.5" text-anchor="start" fill="#666" font-weight="normal" >Two-choice:  Port A or Port B</text>
<rect x="500.0" y="1184.0" width="500.0" height="496.0" fill="none" stroke="none" stroke-width="1.5" rx="0" />
<text x="522.0" y="1212.0" font-family="Helvetica Neue,Arial,sans-serif" font-size="20" text-anchor="start" fill="#2C2C2C" font-weight="bold" >E</text>
<text x="750.0" y="1214.0" font-family="Helvetica Neue,Arial,sans-serif" font-size="15" text-anchor="middle" fill="#117A65" font-weight="bold" >Social Memory</text>
<text x="750.0" y="1231.0" font-family="Helvetica Neue,Arial,sans-serif" font-size="9.5" text-anchor="middle" fill="#666" font-weight="normal" >Familiar vs. novel conspecific discrimination via passive exposure</text>
<line x1="515.0" y1="1238.0" x2="985.0" y2="1238.0" stroke="#DDD" stroke-width="1"  />
<rect x="608.0" y="1252.0" width="204.0" height="149.6" fill="#F6F6F6" stroke="#2C2C2C" stroke-width="1.36" rx="5.44" /><circle cx="608.0" cy="1326.8" r="12.7" fill="white" stroke="#2C2C2C" stroke-width="1.2" /><circle cx="608.0" cy="1326.8" r="10.2" fill="#2471A3" stroke="#2471A3" stroke-width="1.8" /><text x="608.0" y="1327.3" font-family="Helvetica Neue,Arial,sans-serif" font-size="9" text-anchor="middle" fill="white" font-weight="bold" >A</text><circle cx="812.0" cy="1326.8" r="12.7" fill="white" stroke="#2C2C2C" stroke-width="1.2" /><circle cx="812.0" cy="1326.8" r="10.2" fill="#D5D8DC" stroke="#C0392B" stroke-width="1.8" /><text x="812.0" y="1327.3" font-family="Helvetica Neue,Arial,sans-serif" font-size="9" text-anchor="middle" fill="white" font-weight="bold" >B</text><circle cx="710.0" cy="1252.0" r="12.7" fill="white" stroke="#2C2C2C" stroke-width="1.2" /><circle cx="710.0" cy="1252.0" r="10.2" fill="#D5D8DC" stroke="#1E8449" stroke-width="1.8" /><text x="710.0" y="1252.5" font-family="Helvetica Neue,Arial,sans-serif" font-size="9" text-anchor="middle" fill="white" font-weight="bold" >C</text><line x1="608.0" y1="1401.6" x2="657.3" y2="1401.6" stroke="#2C2C2C" stroke-width="1.36"  /><line x1="762.7" y1="1401.6" x2="812.0" y2="1401.6" stroke="#2C2C2C" stroke-width="1.36"  /><rect x="641.0" y="1398.2" width="16.3" height="20.4" fill="#D35400" stroke="#D35400" stroke-width="1" rx="2" opacity="0.65"/><rect x="762.7" y="1398.2" width="16.3" height="20.4" fill="#D35400" stroke="#D35400" stroke-width="1" rx="2" opacity="0.65"/><line x1="657.3" y1="1401.6" x2="657.3" y2="1454.6" stroke="#2C2C2C" stroke-width="1.02"  /><line x1="762.7" y1="1401.6" x2="762.7" y2="1454.6" stroke="#2C2C2C" stroke-width="1.02"  /><rect x="657.3" y="1409.8" width="105.4" height="6.8" fill="#F39C12" stroke="none" stroke-width="1.5" rx="2" opacity="0.4"/><rect x="657.3" y="1439.7" width="105.4" height="6.8" fill="#F39C12" stroke="none" stroke-width="1.5" rx="2" opacity="0.85"/><circle cx="710.0" cy="1536.2" r="81.6" fill="#EBF5FB" stroke="#2C2C2C" stroke-width="1.36" /><circle cx="710.0" cy="1536.2" r="2.7" fill="#2C2C2C" stroke="none" stroke-width="1.5" /><line x1="710.0" y1="1536.2" x2="767.7" y2="1478.5" stroke="#888" stroke-width="0.8160000000000001" stroke-dasharray="5,3" /><line x1="710.0" y1="1536.2" x2="767.7" y2="1593.9" stroke="#888" stroke-width="0.8160000000000001" stroke-dasharray="5,3" /><line x1="710.0" y1="1536.2" x2="652.3" y2="1593.9" stroke="#888" stroke-width="0.8160000000000001" stroke-dasharray="5,3" /><line x1="710.0" y1="1536.2" x2="652.3" y2="1478.5" stroke="#888" stroke-width="0.8160000000000001" stroke-dasharray="5,3" /><ellipse cx="710.0" cy="1488.9" rx="7.2" ry="4.8" fill="#E67E22" stroke="none" transform="rotate(270,710.0,1488.9)"/><circle cx="710.0" cy="1479.9" r="3.9" fill="#E67E22" stroke="none" stroke-width="0" /><circle cx="713.3" cy="1479.9" r="2.3" fill="#E67E22" stroke="none" stroke-width="0" /><circle cx="706.7" cy="1479.9" r="2.3" fill="#E67E22" stroke="none" stroke-width="0" /><path d="M710.0,1496.7 Q714.2,1500.9 712.4,1505.1" fill="none" stroke="#E67E22" stroke-width="1.0" /><ellipse cx="710.0" cy="1583.6" rx="7.2" ry="4.8" fill="#1A7DB5" stroke="none" transform="rotate(90,710.0,1583.6)"/><circle cx="710.0" cy="1592.5" r="3.9" fill="#1A7DB5" stroke="none" stroke-width="0" /><circle cx="706.7" cy="1592.5" r="2.3" fill="#1A7DB5" stroke="none" stroke-width="0" /><circle cx="713.3" cy="1592.5" r="2.3" fill="#1A7DB5" stroke="none" stroke-width="0" /><path d="M710.0,1575.8 Q705.8,1571.6 707.6,1567.4" fill="none" stroke="#1A7DB5" stroke-width="1.0" /><ellipse cx="710.0" cy="1428.1" rx="6.9" ry="4.6" fill="#555" stroke="none" transform="rotate(90,710.0,1428.1)"/><circle cx="710.0" cy="1436.8" r="3.8" fill="#555" stroke="none" stroke-width="0" /><circle cx="706.8" cy="1436.8" r="2.2" fill="#555" stroke="none" stroke-width="0" /><circle cx="713.2" cy="1436.8" r="2.2" fill="#555" stroke="none" stroke-width="0" /><path d="M710.0,1420.6 Q706.0,1416.6 707.7,1412.5" fill="none" stroke="#555" stroke-width="0.9" />
<text x="766.7" y="1417.8" font-family="Helvetica Neue,Arial,sans-serif" font-size="7.5" text-anchor="start" fill="#7D6808" font-weight="normal" >door sensor</text>
<text x="766.7" y="1447.7" font-family="Helvetica Neue,Arial,sans-serif" font-size="7.5" text-anchor="start" fill="#7D6808" font-weight="normal" >table sensor</text>
<text x="710.0" y="1464.4" font-family="Helvetica Neue,Arial,sans-serif" font-size="8" text-anchor="middle" fill="#E67E22" font-weight="bold" >S1: Familiar</text>
<text x="710.0" y="1609.7" font-family="Helvetica Neue,Arial,sans-serif" font-size="8" text-anchor="middle" fill="#1A7DB5" font-weight="bold" >S2: Novel</text>
<path d="M702.0,1524.0 L718.0,1524.0" fill="none" stroke="#117A65" stroke-width="1.5" />
<text x="710.0" y="1516.0" font-family="Helvetica Neue,Arial,sans-serif" font-size="7.5" text-anchor="middle" fill="#117A65" font-weight="normal" >investigation</text>
<text x="710.0" y="1526.0" font-family="Helvetica Neue,Arial,sans-serif" font-size="7.5" text-anchor="middle" fill="#117A65" font-weight="normal" >time</text>
<text x="606.0" y="1340.8" font-family="Helvetica Neue,Arial,sans-serif" font-size="7.5" text-anchor="end" fill="#2471A3" font-weight="normal" >CC trial</text>
<text x="606.0" y="1350.8" font-family="Helvetica Neue,Arial,sans-serif" font-size="7.5" text-anchor="end" fill="#2471A3" font-weight="normal" >during ITI</text>
<text x="840.0" y="1256.0" font-family="Helvetica Neue,Arial,sans-serif" font-size="9.5" text-anchor="start" fill="#2C2C2C" font-weight="bold" >Session structure:</text>
<rect x="840.0" y="1272.0" width="148.0" height="38.0" fill="#E67E2218" stroke="#E67E22" stroke-width="1.8" rx="4" />
<text x="914.0" y="1288.0" font-family="Helvetica Neue,Arial,sans-serif" font-size="9" text-anchor="middle" fill="#E67E22" font-weight="bold" >S1 Presentations × n</text>
<text x="914.0" y="1302.0" font-family="Helvetica Neue,Arial,sans-serif" font-size="8" text-anchor="middle" fill="#555" font-weight="normal" >Familiar conspecific</text>
<line x1="914.0" y1="1311.0" x2="914.0" y2="1317.0" stroke="#555" stroke-width="1.5" marker-end="url(#ar-t)"/>
<rect x="840.0" y="1318.0" width="148.0" height="38.0" fill="#1A7DB518" stroke="#1A7DB5" stroke-width="1.8" rx="4" />
<text x="914.0" y="1334.0" font-family="Helvetica Neue,Arial,sans-serif" font-size="9" text-anchor="middle" fill="#1A7DB5" font-weight="bold" >S2 Presentations × n</text>
<text x="914.0" y="1348.0" font-family="Helvetica Neue,Arial,sans-serif" font-size="8" text-anchor="middle" fill="#555" font-weight="normal" >Novel conspecific</text>
<line x1="840.0" y1="1364.0" x2="988.0" y2="1364.0" stroke="#DDD" stroke-width="0.8"  />
<text x="840.0" y="1377.0" font-family="Helvetica Neue,Arial,sans-serif" font-size="9" text-anchor="start" fill="#888" font-weight="bold" >Each presentation:</text>
<text x="840.0" y="1391.0" font-family="Helvetica Neue,Arial,sans-serif" font-size="8.5" text-anchor="start" fill="#666" font-weight="normal" >  1. Carousel rotates to stimulus angle</text>
<text x="840.0" y="1406.0" font-family="Helvetica Neue,Arial,sans-serif" font-size="8.5" text-anchor="start" fill="#666" font-weight="normal" >  2. Door opens</text>
<text x="840.0" y="1421.0" font-family="Helvetica Neue,Arial,sans-serif" font-size="8.5" text-anchor="start" fill="#666" font-weight="normal" >  3. Investigation time measured</text>
<text x="840.0" y="1436.0" font-family="Helvetica Neue,Arial,sans-serif" font-size="8.5" text-anchor="start" fill="#666" font-weight="normal" >  4. Stimulus removed (45° CCW)</text>
<text x="840.0" y="1451.0" font-family="Helvetica Neue,Arial,sans-serif" font-size="8.5" text-anchor="start" fill="#666" font-weight="normal" >  5. Door closes</text>
<line x1="840.0" y1="1469.0" x2="988.0" y2="1469.0" stroke="#DDD" stroke-width="0.8"  />
<text x="840.0" y="1482.0" font-family="Helvetica Neue,Arial,sans-serif" font-size="9" text-anchor="start" fill="#888" font-weight="bold" >During each ITI:</text>
<text x="840.0" y="1497.0" font-family="Helvetica Neue,Arial,sans-serif" font-size="8.5" text-anchor="start" fill="#666" font-weight="normal" >Classical conditioning trials</text>
<text x="840.0" y="1512.0" font-family="Helvetica Neue,Arial,sans-serif" font-size="8.5" text-anchor="start" fill="#666" font-weight="normal" >(LED → poke → reward)</text>
<line x1="840.0" y1="1526.0" x2="988.0" y2="1526.0" stroke="#DDD" stroke-width="0.8"  />
<text x="840.0" y="1540.0" font-family="Helvetica Neue,Arial,sans-serif" font-size="9" text-anchor="start" fill="#117A65" font-weight="bold" >Measure: investigation time</text>
<text x="840.0" y="1554.0" font-family="Helvetica Neue,Arial,sans-serif" font-size="8.5" text-anchor="start" fill="#555" font-weight="normal" >Social memory index =</text>
<text x="840.0" y="1569.0" font-family="Helvetica Neue,Arial,sans-serif" font-size="8.5" text-anchor="start" fill="#555" font-weight="normal" >S2 / (S1 + S2) time</text>
</svg>