<svg xmlns="http://www.w3.org/2000/svg" width="1000" height="1680" viewBox="0 0 1000 1680">
<defs>
<marker id="ar" markerWidth="8" markerHeight="6" refX="7" refY="3" orient="auto"><polygon points="0 0,8 3,0 6" fill="#555"/></marker>
<marker id="ar-b" markerWidth="8" markerHeight="6" refX="7" refY="3" orient="auto"><polygon points="0 0,8 3,0 6" fill="#2471A3"/></marker>
<marker id="ar-r" markerWidth="8" markerHeight="6" refX="7" refY="3" orient="auto"><polygon points="0 0,8 3,0 6" fill="#C0392B"/></marker>
<marker id="ar-g" markerWidth="8" markerHeight="6" refX="7" refY="3" orient="auto"><polygon points="0 0,8 3,0 6" fill="#27AE60"/></marker>
<marker id="ar-p" markerWidth="8" markerHeight="6" refX="7" refY="3" orient="auto"><polygon points="0 0,8 3,0 6" fill="#7D3C98"/></marker>
</defs>
<rect width="1000" height="1680" fill="white"/>
<text x="500.0" y="36.0" font-family="Helvetica Neue,Arial,sans-serif" font-size="18" text-anchor="middle" fill="#2C2C2C" font-weight="bold" >Conspecific Carousel Behavioral Apparatus</text>
<text x="500.0" y="54.0" font-family="Helvetica Neue,Arial,sans-serif" font-size="11" text-anchor="middle" fill="#666" font-weight="normal" >Top-down view</text>
<text x="20.0" y="42.0" font-family="Helvetica Neue,Arial,sans-serif" font-size="22" text-anchor="start" fill="#2C2C2C" font-weight="bold" >A</text>
<rect x="160.0" y="80.0" width="300.0" height="220.0" fill="#F6F6F6" stroke="#2C2C2C" stroke-width="2.0" rx="8.0" /><circle cx="160.0" cy="190.0" r="17.5" fill="white" stroke="#2C2C2C" stroke-width="1.2" /><circle cx="160.0" cy="190.0" r="15.0" fill="#D5D8DC" stroke="#2471A3" stroke-width="1.8" /><text x="160.0" y="190.5" font-family="Helvetica Neue,Arial,sans-serif" font-size="13" text-anchor="middle" fill="white" font-weight="bold" >A</text><circle cx="460.0" cy="190.0" r="17.5" fill="white" stroke="#2C2C2C" stroke-width="1.2" /><circle cx="460.0" cy="190.0" r="15.0" fill="#D5D8DC" stroke="#C0392B" stroke-width="1.8" /><text x="460.0" y="190.5" font-family="Helvetica Neue,Arial,sans-serif" font-size="13" text-anchor="middle" fill="white" font-weight="bold" >B</text><circle cx="310.0" cy="80.0" r="17.5" fill="white" stroke="#2C2C2C" stroke-width="1.2" /><circle cx="310.0" cy="80.0" r="15.0" fill="#D5D8DC" stroke="#1E8449" stroke-width="1.8" /><text x="310.0" y="80.5" font-family="Helvetica Neue,Arial,sans-serif" font-size="13" text-anchor="middle" fill="white" font-weight="bold" >C</text><line x1="160.0" y1="300.0" x2="232.5" y2="300.0" stroke="#2C2C2C" stroke-width="2.0"  /><line x1="387.5" y1="300.0" x2="460.0" y2="300.0" stroke="#2C2C2C" stroke-width="2.0"  /><rect x="208.5" y="295.0" width="24.0" height="30.0" fill="#D35400" stroke="#D35400" stroke-width="1" rx="2" opacity="0.65"/><rect x="387.5" y="295.0" width="24.0" height="30.0" fill="#D35400" stroke="#D35400" stroke-width="1" rx="2" opacity="0.65"/><line x1="232.5" y1="300.0" x2="232.5" y2="378.0" stroke="#2C2C2C" stroke-width="1.5"  /><line x1="387.5" y1="300.0" x2="387.5" y2="378.0" stroke="#2C2C2C" stroke-width="1.5"  /><rect x="232.5" y="312.0" width="155.0" height="10.0" fill="#F39C12" stroke="none" stroke-width="1.5" rx="2" opacity="0.4"/><rect x="232.5" y="356.0" width="155.0" height="10.0" fill="#F39C12" stroke="none" stroke-width="1.5" rx="2" opacity="0.85"/><text x="391.5" y="322.0" font-family="Helvetica Neue,Arial,sans-serif" font-size="7.5" text-anchor="start" fill="#7D6808" font-weight="normal" >door sensor</text><text x="391.5" y="366.0" font-family="Helvetica Neue,Arial,sans-serif" font-size="7.5" text-anchor="start" fill="#7D6808" font-weight="normal" >table sensor</text><circle cx="310.0" cy="498.0" r="120.0" fill="#EBF5FB" stroke="#2C2C2C" stroke-width="2.0" /><circle cx="310.0" cy="498.0" r="4.0" fill="#2C2C2C" stroke="none" stroke-width="1.5" /><line x1="310.0" y1="498.0" x2="394.9" y2="413.1" stroke="#888" stroke-width="1.2" stroke-dasharray="5,3" /><line x1="310.0" y1="498.0" x2="394.9" y2="582.9" stroke="#888" stroke-width="1.2" stroke-dasharray="5,3" /><line x1="310.0" y1="498.0" x2="225.1" y2="582.9" stroke="#888" stroke-width="1.2" stroke-dasharray="5,3" /><line x1="310.0" y1="498.0" x2="225.1" y2="413.1" stroke="#888" stroke-width="1.2" stroke-dasharray="5,3" /><ellipse cx="310.0" cy="428.4" rx="10.6" ry="7.0" fill="#C0392B" stroke="none" transform="rotate(270,310.0,428.4)"/><circle cx="310.0" cy="415.2" r="5.7" fill="#C0392B" stroke="none" stroke-width="0" /><circle cx="314.8" cy="415.2" r="3.3" fill="#C0392B" stroke="none" stroke-width="0" /><circle cx="305.2" cy="415.2" r="3.3" fill="#C0392B" stroke="none" stroke-width="0" /><path d="M310.0,439.8 Q316.2,446.0 313.5,452.2" fill="none" stroke="#C0392B" stroke-width="1.4" /><ellipse cx="310.0" cy="567.6" rx="10.6" ry="7.0" fill="#2471A3" stroke="none" transform="rotate(90,310.0,567.6)"/><circle cx="310.0" cy="580.8" r="5.7" fill="#2471A3" stroke="none" stroke-width="0" /><circle cx="305.2" cy="580.8" r="3.3" fill="#2471A3" stroke="none" stroke-width="0" /><circle cx="314.8" cy="580.8" r="3.3" fill="#2471A3" stroke="none" stroke-width="0" /><path d="M310.0,556.2 Q303.8,550.0 306.5,543.8" fill="none" stroke="#2471A3" stroke-width="1.4" /><path d="M262.8,627.7 A138.0,138.0 0 0,1 204.3,409.3" fill="none" stroke="#888" stroke-width="1.2" marker-end="url(#ar)"/>
<text x="560.0" y="100.0" font-family="Helvetica Neue,Arial,sans-serif" font-size="13" text-anchor="start" fill="#2C2C2C" font-weight="bold" >Legend</text>
<line x1="560.0" y1="106.0" x2="900.0" y2="106.0" stroke="#CCC" stroke-width="1"  />
<circle cx="572.0" cy="125.0" r="10.0" fill="#2471A3" stroke="#2471A3" stroke-width="1.5" />
<text x="572.0" y="126.0" font-family="Helvetica Neue,Arial,sans-serif" font-size="9" text-anchor="middle" fill="white" font-weight="bold" >A</text>
<text x="588.0" y="120.0" font-family="Helvetica Neue,Arial,sans-serif" font-size="10" text-anchor="start" fill="#2471A3" font-weight="bold" >Port A</text>
<text x="588.0" y="133.0" font-family="Helvetica Neue,Arial,sans-serif" font-size="9" text-anchor="start" fill="#555" font-weight="normal" >Initiation / choice port</text>
<circle cx="572.0" cy="152.0" r="10.0" fill="#C0392B" stroke="#C0392B" stroke-width="1.5" />
<text x="572.0" y="153.0" font-family="Helvetica Neue,Arial,sans-serif" font-size="9" text-anchor="middle" fill="white" font-weight="bold" >B</text>
<text x="588.0" y="147.0" font-family="Helvetica Neue,Arial,sans-serif" font-size="10" text-anchor="start" fill="#C0392B" font-weight="bold" >Port B</text>
<text x="588.0" y="160.0" font-family="Helvetica Neue,Arial,sans-serif" font-size="9" text-anchor="start" fill="#555" font-weight="normal" >Initiation / choice port</text>
<circle cx="572.0" cy="179.0" r="10.0" fill="#1E8449" stroke="#1E8449" stroke-width="1.5" />
<text x="572.0" y="180.0" font-family="Helvetica Neue,Arial,sans-serif" font-size="9" text-anchor="middle" fill="white" font-weight="bold" >C</text>
<text x="588.0" y="174.0" font-family="Helvetica Neue,Arial,sans-serif" font-size="10" text-anchor="start" fill="#1E8449" font-weight="bold" >Port C</text>
<text x="588.0" y="187.0" font-family="Helvetica Neue,Arial,sans-serif" font-size="9" text-anchor="start" fill="#555" font-weight="normal" >Reward / initiation port</text>
<line x1="560.0" y1="195.0" x2="900.0" y2="195.0" stroke="#EEE" stroke-width="0.8"  />
<rect x="564.0" y="207.0" width="20.0" height="14.0" fill="#D35400" stroke="#D35400" stroke-width="1" rx="2" opacity="0.6"/>
<text x="588.0" y="213.0" font-family="Helvetica Neue,Arial,sans-serif" font-size="10" text-anchor="start" fill="#D35400" font-weight="bold" >Door (shown open)</text>
<text x="588.0" y="225.0" font-family="Helvetica Neue,Arial,sans-serif" font-size="9" text-anchor="start" fill="#555" font-weight="normal" >Slides aside when triggered</text>
<rect x="564.0" y="237.0" width="20.0" height="6.0" fill="#F39C12" stroke="none" stroke-width="1.5" rx="1" opacity="0.5"/>
<text x="588.0" y="243.0" font-family="Helvetica Neue,Arial,sans-serif" font-size="10" text-anchor="start" fill="#7D6808" font-weight="bold" >Door sensor</text>
<text x="588.0" y="255.0" font-family="Helvetica Neue,Arial,sans-serif" font-size="9" text-anchor="start" fill="#555" font-weight="normal" >Detects subject near door</text>
<rect x="564.0" y="265.0" width="20.0" height="6.0" fill="#F39C12" stroke="none" stroke-width="1.5" rx="1" opacity="0.9"/>
<text x="588.0" y="271.0" font-family="Helvetica Neue,Arial,sans-serif" font-size="10" text-anchor="start" fill="#7D6808" font-weight="bold" >Table sensor</text>
<text x="588.0" y="283.0" font-family="Helvetica Neue,Arial,sans-serif" font-size="9" text-anchor="start" fill="#555" font-weight="normal" >Detects subject on carousel platform</text>
<line x1="560.0" y1="294.0" x2="900.0" y2="294.0" stroke="#EEE" stroke-width="0.8"  />
<ellipse cx="572.0" cy="310.0" rx="10.2" ry="6.8" fill="#C0392B" stroke="none" transform="rotate(270,572.0,310.0)"/><circle cx="572.0" cy="297.2" r="5.5" fill="#C0392B" stroke="none" stroke-width="0" /><circle cx="576.7" cy="297.2" r="3.2" fill="#C0392B" stroke="none" stroke-width="0" /><circle cx="567.3" cy="297.2" r="3.2" fill="#C0392B" stroke="none" stroke-width="0" /><path d="M572.0,321.1 Q578.0,327.0 575.4,332.9" fill="none" stroke="#C0392B" stroke-width="1.4" />
<text x="588.0" y="306.0" font-family="Helvetica Neue,Arial,sans-serif" font-size="10" text-anchor="start" fill="#C0392B" font-weight="bold" >Stimulus animal A</text>
<text x="588.0" y="318.0" font-family="Helvetica Neue,Arial,sans-serif" font-size="9" text-anchor="start" fill="#555" font-weight="normal" >Faces arena at 0° position</text>
<ellipse cx="572.0" cy="338.0" rx="10.2" ry="6.8" fill="#2471A3" stroke="none" transform="rotate(90,572.0,338.0)"/><circle cx="572.0" cy="350.8" r="5.5" fill="#2471A3" stroke="none" stroke-width="0" /><circle cx="567.3" cy="350.8" r="3.2" fill="#2471A3" stroke="none" stroke-width="0" /><circle cx="576.7" cy="350.8" r="3.2" fill="#2471A3" stroke="none" stroke-width="0" /><path d="M572.0,326.9 Q566.0,321.0 568.6,315.1" fill="none" stroke="#2471A3" stroke-width="1.4" />
<text x="588.0" y="334.0" font-family="Helvetica Neue,Arial,sans-serif" font-size="10" text-anchor="start" fill="#2471A3" font-weight="bold" >Stimulus animal B</text>
<text x="588.0" y="346.0" font-family="Helvetica Neue,Arial,sans-serif" font-size="9" text-anchor="start" fill="#555" font-weight="normal" >Faces away at 180° position</text>
<ellipse cx="572.0" cy="366.0" rx="10.2" ry="6.8" fill="#555" stroke="none" transform="rotate(0,572.0,366.0)"/><circle cx="584.8" cy="366.0" r="5.5" fill="#555" stroke="none" stroke-width="0" /><circle cx="584.8" cy="370.7" r="3.2" fill="#555" stroke="none" stroke-width="0" /><circle cx="584.8" cy="361.3" r="3.2" fill="#555" stroke="none" stroke-width="0" /><path d="M561.0,366.0 Q555.0,371.9 549.1,369.4" fill="none" stroke="#555" stroke-width="1.4" />
<text x="588.0" y="362.0" font-family="Helvetica Neue,Arial,sans-serif" font-size="10" text-anchor="start" fill="#555" font-weight="bold" >Subject animal</text>
<text x="588.0" y="374.0" font-family="Helvetica Neue,Arial,sans-serif" font-size="9" text-anchor="start" fill="#555" font-weight="normal" >Freely moving in apparatus</text>
<line x1="560.0" y1="385.0" x2="900.0" y2="385.0" stroke="#EEE" stroke-width="0.8"  />
<text x="560.0" y="398.0" font-family="Helvetica Neue,Arial,sans-serif" font-size="9" text-anchor="start" fill="#777" font-weight="normal" >Carousel dividers at 45°, 135°, 225°, 315°</text>
<text x="560.0" y="410.0" font-family="Helvetica Neue,Arial,sans-serif" font-size="9" text-anchor="start" fill="#777" font-weight="normal" >Stimulus animals always 180° apart</text>
<text x="310.0" y="360.0" font-family="Helvetica Neue,Arial,sans-serif" font-size="8" text-anchor="middle" fill="#666" font-weight="normal" >0°</text>
<text x="448.0" y="498.0" font-family="Helvetica Neue,Arial,sans-serif" font-size="8" text-anchor="middle" fill="#666" font-weight="normal" >90°</text>
<text x="310.0" y="636.0" font-family="Helvetica Neue,Arial,sans-serif" font-size="8" text-anchor="middle" fill="#666" font-weight="normal" >180°</text>
<text x="172.0" y="498.0" font-family="Helvetica Neue,Arial,sans-serif" font-size="8" text-anchor="middle" fill="#666" font-weight="normal" >270°</text>
<line x1="0.0" y1="688.0" x2="1000.0" y2="688.0" stroke="#CCCCCC" stroke-width="1"  />
<line x1="500.0" y1="688.0" x2="500.0" y2="1680.0" stroke="#CCCCCC" stroke-width="1"  />
<line x1="0.0" y1="1184.0" x2="1000.0" y2="1184.0" stroke="#CCCCCC" stroke-width="1"  />
<text x="22.0" y="716.0" font-family="Helvetica Neue,Arial,sans-serif" font-size="20" text-anchor="start" fill="#2C2C2C" font-weight="bold" >B</text>
<text x="250.0" y="718.0" font-family="Helvetica Neue,Arial,sans-serif" font-size="15" text-anchor="middle" fill="#C0392B" font-weight="bold" >Social Reward</text>
<text x="250.0" y="735.0" font-family="Helvetica Neue,Arial,sans-serif" font-size="9.5" text-anchor="middle" fill="#666" font-weight="normal" >One conspecific predicts reward (R); other does not (U)</text>
<line x1="15.0" y1="742.0" x2="485.0" y2="742.0" stroke="#DDD" stroke-width="1"  />
<rect x="138.0" y="752.0" width="204.0" height="149.6" fill="#F6F6F6" stroke="#2C2C2C" stroke-width="1.36" rx="5.44" /><circle cx="138.0" cy="826.8" r="12.7" fill="white" stroke="#2C2C2C" stroke-width="1.2" /><circle cx="138.0" cy="826.8" r="10.2" fill="#D5D8DC" stroke="#2471A3" stroke-width="1.8" /><text x="138.0" y="827.3" font-family="Helvetica Neue,Arial,sans-serif" font-size="9" text-anchor="middle" fill="white" font-weight="bold" >A</text><circle cx="342.0" cy="826.8" r="12.7" fill="white" stroke="#2C2C2C" stroke-width="1.2" /><circle cx="342.0" cy="826.8" r="10.2" fill="#D5D8DC" stroke="#C0392B" stroke-width="1.8" /><text x="342.0" y="827.3" font-family="Helvetica Neue,Arial,sans-serif" font-size="9" text-anchor="middle" fill="white" font-weight="bold" >B</text><circle cx="240.0" cy="752.0" r="12.7" fill="white" stroke="#2C2C2C" stroke-width="1.2" /><circle cx="240.0" cy="752.0" r="10.2" fill="#1E8449" stroke="#1E8449" stroke-width="1.8" /><text x="240.0" y="752.5" font-family="Helvetica Neue,Arial,sans-serif" font-size="9" text-anchor="middle" fill="white" font-weight="bold" >C</text><line x1="138.0" y1="901.6" x2="187.3" y2="901.6" stroke="#2C2C2C" stroke-width="1.36"  /><line x1="292.7" y1="901.6" x2="342.0" y2="901.6" stroke="#2C2C2C" stroke-width="1.36"  /><rect x="171.0" y="898.2" width="16.3" height="20.4" fill="#D35400" stroke="#D35400" stroke-width="1" rx="2" opacity="0.65"/><rect x="292.7" y="898.2" width="16.3" height="20.4" fill="#D35400" stroke="#D35400" stroke-width="1" rx="2" opacity="0.65"/><line x1="187.3" y1="901.6" x2="187.3" y2="954.6" stroke="#2C2C2C" stroke-width="1.02"  /><line x1="292.7" y1="901.6" x2="292.7" y2="954.6" stroke="#2C2C2C" stroke-width="1.02"  /><rect x="187.3" y="909.8" width="105.4" height="6.8" fill="#F39C12" stroke="none" stroke-width="1.5" rx="2" opacity="0.4"/><rect x="187.3" y="939.7" width="105.4" height="6.8" fill="#F39C12" stroke="none" stroke-width="1.5" rx="2" opacity="0.85"/><text x="295.4" y="916.6" font-family="Helvetica Neue,Arial,sans-serif" font-size="5.1000000000000005" text-anchor="start" fill="#7D6808" font-weight="normal" >door sensor</text><text x="295.4" y="946.5" font-family="Helvetica Neue,Arial,sans-serif" font-size="5.1000000000000005" text-anchor="start" fill="#7D6808" font-weight="normal" >table sensor</text><circle cx="240.0" cy="1036.2" r="81.6" fill="#EBF5FB" stroke="#2C2C2C" stroke-width="1.36" /><circle cx="240.0" cy="1036.2" r="2.7" fill="#2C2C2C" stroke="none" stroke-width="1.5" /><line x1="240.0" y1="1036.2" x2="297.7" y2="978.5" stroke="#888" stroke-width="0.8160000000000001" stroke-dasharray="5,3" /><line x1="240.0" y1="1036.2" x2="297.7" y2="1093.9" stroke="#888" stroke-width="0.8160000000000001" stroke-dasharray="5,3" /><line x1="240.0" y1="1036.2" x2="182.3" y2="1093.9" stroke="#888" stroke-width="0.8160000000000001" stroke-dasharray="5,3" /><line x1="240.0" y1="1036.2" x2="182.3" y2="978.5" stroke="#888" stroke-width="0.8160000000000001" stroke-dasharray="5,3" /><ellipse cx="240.0" cy="988.9" rx="7.2" ry="4.8" fill="#C0392B" stroke="none" transform="rotate(270,240.0,988.9)"/><circle cx="240.0" cy="979.9" r="3.9" fill="#C0392B" stroke="none" stroke-width="0" /><circle cx="243.3" cy="979.9" r="2.3" fill="#C0392B" stroke="none" stroke-width="0" /><circle cx="236.7" cy="979.9" r="2.3" fill="#C0392B" stroke="none" stroke-width="0" /><path d="M240.0,996.7 Q244.2,1000.9 242.4,1005.1" fill="none" stroke="#C0392B" stroke-width="1.0" /><ellipse cx="240.0" cy="1083.6" rx="7.2" ry="4.8" fill="#999999" stroke="none" transform="rotate(90,240.0,1083.6)"/><circle cx="240.0" cy="1092.5" r="3.9" fill="#999999" stroke="none" stroke-width="0" /><circle cx="236.7" cy="1092.5" r="2.3" fill="#999999" stroke="none" stroke-width="0" /><circle cx="243.3" cy="1092.5" r="2.3" fill="#999999" stroke="none" stroke-width="0" /><path d="M240.0,1075.8 Q235.8,1071.6 237.6,1067.4" fill="none" stroke="#999999" stroke-width="1.0" /><ellipse cx="240.0" cy="928.1" rx="6.9" ry="4.6" fill="#555" stroke="none" transform="rotate(90,240.0,928.1)"/><circle cx="240.0" cy="936.8" r="3.8" fill="#555" stroke="none" stroke-width="0" /><circle cx="236.8" cy="936.8" r="2.2" fill="#555" stroke="none" stroke-width="0" /><circle cx="243.2" cy="936.8" r="2.2" fill="#555" stroke="none" stroke-width="0" /><path d="M240.0,920.6 Q236.0,916.6 237.7,912.5" fill="none" stroke="#555" stroke-width="0.9" />
<text x="296.7" y="917.8" font-family="Helvetica Neue,Arial,sans-serif" font-size="7.5" text-anchor="start" fill="#7D6808" font-weight="normal" >door sensor</text>
<text x="296.7" y="947.7" font-family="Helvetica Neue,Arial,sans-serif" font-size="7.5" text-anchor="start" fill="#7D6808" font-weight="normal" >table sensor</text>
<text x="240.0" y="915.6" font-family="Helvetica Neue,Arial,sans-serif" font-size="8" text-anchor="middle" fill="#D35400" font-weight="normal" >door (open)</text>
<text x="262.8" y="980.9" font-family="Helvetica Neue,Arial,sans-serif" font-size="32" text-anchor="middle" fill="#27AE60" font-weight="bold" >+</text>
<text x="240.0" y="964.4" font-family="Helvetica Neue,Arial,sans-serif" font-size="8" text-anchor="middle" fill="#C0392B" font-weight="bold" >Rewarded</text>
<text x="262.8" y="1075.6" font-family="Helvetica Neue,Arial,sans-serif" font-size="36" text-anchor="middle" fill="#C0392B" font-weight="bold" >−</text>
<text x="240.0" y="1108.0" font-family="Helvetica Neue,Arial,sans-serif" font-size="8" text-anchor="middle" fill="#999" font-weight="bold" >Unrewarded</text>
<text x="244.0" y="723.6" font-family="Helvetica Neue,Arial,sans-serif" font-size="8" text-anchor="middle" fill="#1E8449" font-weight="normal" >reward port</text>
<text x="522.0" y="716.0" font-family="Helvetica Neue,Arial,sans-serif" font-size="20" text-anchor="start" fill="#2C2C2C" font-weight="bold" >C</text>
<text x="750.0" y="718.0" font-family="Helvetica Neue,Arial,sans-serif" font-size="15" text-anchor="middle" fill="#7D3C98" font-weight="bold" >Social Reward 2AFC</text>
<text x="750.0" y="735.0" font-family="Helvetica Neue,Arial,sans-serif" font-size="9.5" text-anchor="middle" fill="#666" font-weight="normal" >Subject discriminates two conspecifics; choice port matches stimulus</text>
<line x1="515.0" y1="742.0" x2="985.0" y2="742.0" stroke="#DDD" stroke-width="1"  />
<rect x="638.0" y="752.0" width="204.0" height="149.6" fill="#F6F6F6" stroke="#2C2C2C" stroke-width="1.36" rx="5.44" /><circle cx="638.0" cy="826.8" r="12.7" fill="white" stroke="#2C2C2C" stroke-width="1.2" /><circle cx="638.0" cy="826.8" r="10.2" fill="#2471A3" stroke="#2471A3" stroke-width="1.8" /><text x="638.0" y="827.3" font-family="Helvetica Neue,Arial,sans-serif" font-size="9" text-anchor="middle" fill="white" font-weight="bold" >A</text><circle cx="842.0" cy="826.8" r="12.7" fill="white" stroke="#2C2C2C" stroke-width="1.2" /><circle cx="842.0" cy="826.8" r="10.2" fill="#C0392B" stroke="#C0392B" stroke-width="1.8" /><text x="842.0" y="827.3" font-family="Helvetica Neue,Arial,sans-serif" font-size="9" text-anchor="middle" fill="white" font-weight="bold" >B</text><circle cx="740.0" cy="752.0" r="12.7" fill="white" stroke="#2C2C2C" stroke-width="1.2" /><circle cx="740.0" cy="752.0" r="10.2" fill="#D5D8DC" stroke="#1E8449" stroke-width="1.8" /><text x="740.0" y="752.5" font-family="Helvetica Neue,Arial,sans-serif" font-size="9" text-anchor="middle" fill="white" font-weight="bold" >C</text><line x1="638.0" y1="901.6" x2="687.3" y2="901.6" stroke="#2C2C2C" stroke-width="1.36"  /><line x1="792.7" y1="901.6" x2="842.0" y2="901.6" stroke="#2C2C2C" stroke-width="1.36"  /><rect x="671.0" y="898.2" width="16.3" height="20.4" fill="#D35400" stroke="#D35400" stroke-width="1" rx="2" opacity="0.65"/><rect x="792.7" y="898.2" width="16.3" height="20.4" fill="#D35400" stroke="#D35400" stroke-width="1" rx="2" opacity="0.65"/><line x1="687.3" y1="901.6" x2="687.3" y2="954.6" stroke="#2C2C2C" stroke-width="1.02"  /><line x1="792.7" y1="901.6" x2="792.7" y2="954.6" stroke="#2C2C2C" stroke-width="1.02"  /><rect x="687.3" y="909.8" width="105.4" height="6.8" fill="#F39C12" stroke="none" stroke-width="1.5" rx="2" opacity="0.4"/><rect x="687.3" y="939.7" width="105.4" height="6.8" fill="#F39C12" stroke="none" stroke-width="1.5" rx="2" opacity="0.85"/><text x="795.4" y="916.6" font-family="Helvetica Neue,Arial,sans-serif" font-size="5.1000000000000005" text-anchor="start" fill="#7D6808" font-weight="normal" >door sensor</text><text x="795.4" y="946.5" font-family="Helvetica Neue,Arial,sans-serif" font-size="5.1000000000000005" text-anchor="start" fill="#7D6808" font-weight="normal" >table sensor</text><circle cx="740.0" cy="1036.2" r="81.6" fill="#EBF5FB" stroke="#2C2C2C" stroke-width="1.36" /><circle cx="740.0" cy="1036.2" r="2.7" fill="#2C2C2C" stroke="none" stroke-width="1.5" /><line x1="740.0" y1="1036.2" x2="797.7" y2="978.5" stroke="#888" stroke-width="0.8160000000000001" stroke-dasharray="5,3" /><line x1="740.0" y1="1036.2" x2="797.7" y2="1093.9" stroke="#888" stroke-width="0.8160000000000001" stroke-dasharray="5,3" /><line x1="740.0" y1="1036.2" x2="682.3" y2="1093.9" stroke="#888" stroke-width="0.8160000000000001" stroke-dasharray="5,3" /><line x1="740.0" y1="1036.2" x2="682.3" y2="978.5" stroke="#888" stroke-width="0.8160000000000001" stroke-dasharray="5,3" /><ellipse cx="740.0" cy="988.9" rx="7.2" ry="4.8" fill="#2471A3" stroke="none" transform="rotate(270,740.0,988.9)"/><circle cx="740.0" cy="979.9" r="3.9" fill="#2471A3" stroke="none" stroke-width="0" /><circle cx="743.3" cy="979.9" r="2.3" fill="#2471A3" stroke="none" stroke-width="0" /><circle cx="736.7" cy="979.9" r="2.3" fill="#2471A3" stroke="none" stroke-width="0" /><path d="M740.0,996.7 Q744.2,1000.9 742.4,1005.1" fill="none" stroke="#2471A3" stroke-width="1.0" /><ellipse cx="740.0" cy="1083.6" rx="7.2" ry="4.8" fill="#C0392B" stroke="none" transform="rotate(90,740.0,1083.6)"/><circle cx="740.0" cy="1092.5" r="3.9" fill="#C0392B" stroke="none" stroke-width="0" /><circle cx="736.7" cy="1092.5" r="2.3" fill="#C0392B" stroke="none" stroke-width="0" /><circle cx="743.3" cy="1092.5" r="2.3" fill="#C0392B" stroke="none" stroke-width="0" /><path d="M740.0,1075.8 Q735.8,1071.6 737.6,1067.4" fill="none" stroke="#C0392B" stroke-width="1.0" /><path d="M707.9,1124.4 A93.8,93.8 0 0,1 668.1,975.9" fill="none" stroke="#888" stroke-width="0.8160000000000001" marker-end="url(#ar)"/>
<text x="796.7" y="917.8" font-family="Helvetica Neue,Arial,sans-serif" font-size="7.5" text-anchor="start" fill="#7D6808" font-weight="normal" >door sensor</text>
<text x="796.7" y="947.7" font-family="Helvetica Neue,Arial,sans-serif" font-size="7.5" text-anchor="start" fill="#7D6808" font-weight="normal" >table sensor</text>
<text x="740.0" y="964.4" font-family="Helvetica Neue,Arial,sans-serif" font-size="8" text-anchor="middle" fill="#2471A3" font-weight="bold" >Con A</text>
<text x="740.0" y="1108.0" font-family="Helvetica Neue,Arial,sans-serif" font-size="8" text-anchor="middle" fill="#C0392B" font-weight="bold" >Con B</text>
<path d="M736.0,988.9 Q677.0,887.9 648.2,826.8" fill="none" stroke="#2471A3" stroke-width="2" marker-end="url(#ar-b)"/>
<text x="624.8" y="810.8" font-family="Helvetica Neue,Arial,sans-serif" font-size="14" text-anchor="end" fill="#27AE60" font-weight="bold" >✓</text>
<path d="M744.0,1083.6 Q803.0,935.2 831.8,826.8" fill="none" stroke="#C0392B" stroke-width="2" marker-end="url(#ar-r)"/>
<text x="855.2" y="810.8" font-family="Helvetica Neue,Arial,sans-serif" font-size="14" text-anchor="start" fill="#27AE60" font-weight="bold" >✓</text>
<text x="636.0" y="847.0" font-family="Helvetica Neue,Arial,sans-serif" font-size="8" text-anchor="end" fill="#2471A3" font-weight="bold" >Port A</text>
<text x="844.0" y="847.0" font-family="Helvetica Neue,Arial,sans-serif" font-size="8" text-anchor="start" fill="#C0392B" font-weight="bold" >Port B</text>
<text x="22.0" y="1212.0" font-family="Helvetica Neue,Arial,sans-serif" font-size="20" text-anchor="start" fill="#2C2C2C" font-weight="bold" >D</text>
<text x="250.0" y="1214.0" font-family="Helvetica Neue,Arial,sans-serif" font-size="15" text-anchor="middle" fill="#1A5276" font-weight="bold" >Social Choice</text>
<text x="250.0" y="1231.0" font-family="Helvetica Neue,Arial,sans-serif" font-size="9.5" text-anchor="middle" fill="#666" font-weight="normal" >Subject chooses between sucrose (Port A → C) or social exposure (Port B)</text>
<line x1="15.0" y1="1238.0" x2="485.0" y2="1238.0" stroke="#DDD" stroke-width="1"  />
<rect x="138.0" y="1248.0" width="204.0" height="149.6" fill="#F6F6F6" stroke="#2C2C2C" stroke-width="1.36" rx="5.44" /><circle cx="138.0" cy="1322.8" r="12.7" fill="white" stroke="#2C2C2C" stroke-width="1.2" /><circle cx="138.0" cy="1322.8" r="10.2" fill="#2471A3" stroke="#2471A3" stroke-width="1.8" /><text x="138.0" y="1323.3" font-family="Helvetica Neue,Arial,sans-serif" font-size="9" text-anchor="middle" fill="white" font-weight="bold" >A</text><circle cx="342.0" cy="1322.8" r="12.7" fill="white" stroke="#2C2C2C" stroke-width="1.2" /><circle cx="342.0" cy="1322.8" r="10.2" fill="#C0392B" stroke="#C0392B" stroke-width="1.8" /><text x="342.0" y="1323.3" font-family="Helvetica Neue,Arial,sans-serif" font-size="9" text-anchor="middle" fill="white" font-weight="bold" >B</text><circle cx="240.0" cy="1248.0" r="12.7" fill="white" stroke="#2C2C2C" stroke-width="1.2" /><circle cx="240.0" cy="1248.0" r="10.2" fill="#1E8449" stroke="#1E8449" stroke-width="1.8" /><text x="240.0" y="1248.5" font-family="Helvetica Neue,Arial,sans-serif" font-size="9" text-anchor="middle" fill="white" font-weight="bold" >C</text><line x1="138.0" y1="1397.6" x2="187.3" y2="1397.6" stroke="#2C2C2C" stroke-width="1.36"  /><line x1="292.7" y1="1397.6" x2="342.0" y2="1397.6" stroke="#2C2C2C" stroke-width="1.36"  /><line x1="187.3" y1="1397.6" x2="292.7" y2="1397.6" stroke="#D35400" stroke-width="2.72"  /><line x1="187.3" y1="1397.6" x2="187.3" y2="1450.6" stroke="#2C2C2C" stroke-width="1.02"  /><line x1="292.7" y1="1397.6" x2="292.7" y2="1450.6" stroke="#2C2C2C" stroke-width="1.02"  /><rect x="187.3" y="1405.8" width="105.4" height="6.8" fill="#F39C12" stroke="none" stroke-width="1.5" rx="2" opacity="0.4"/><rect x="187.3" y="1435.7" width="105.4" height="6.8" fill="#F39C12" stroke="none" stroke-width="1.5" rx="2" opacity="0.85"/><circle cx="240.0" cy="1532.2" r="81.6" fill="#EBF5FB" stroke="#2C2C2C" stroke-width="1.36" /><circle cx="240.0" cy="1532.2" r="2.7" fill="#2C2C2C" stroke="none" stroke-width="1.5" /><line x1="240.0" y1="1532.2" x2="297.7" y2="1474.5" stroke="#888" stroke-width="0.8160000000000001" stroke-dasharray="5,3" /><line x1="240.0" y1="1532.2" x2="297.7" y2="1589.9" stroke="#888" stroke-width="0.8160000000000001" stroke-dasharray="5,3" /><line x1="240.0" y1="1532.2" x2="182.3" y2="1589.9" stroke="#888" stroke-width="0.8160000000000001" stroke-dasharray="5,3" /><line x1="240.0" y1="1532.2" x2="182.3" y2="1474.5" stroke="#888" stroke-width="0.8160000000000001" stroke-dasharray="5,3" /><ellipse cx="240.0" cy="1484.9" rx="7.2" ry="4.8" fill="#7D3C98" stroke="none" transform="rotate(270,240.0,1484.9)"/><circle cx="240.0" cy="1475.9" r="3.9" fill="#7D3C98" stroke="none" stroke-width="0" /><circle cx="243.3" cy="1475.9" r="2.3" fill="#7D3C98" stroke="none" stroke-width="0" /><circle cx="236.7" cy="1475.9" r="2.3" fill="#7D3C98" stroke="none" stroke-width="0" /><path d="M240.0,1492.7 Q244.2,1496.9 242.4,1501.1" fill="none" stroke="#7D3C98" stroke-width="1.0" />
<text x="296.7" y="1413.8" font-family="Helvetica Neue,Arial,sans-serif" font-size="7.5" text-anchor="start" fill="#7D6808" font-weight="normal" >door sensor</text>
<text x="296.7" y="1443.7" font-family="Helvetica Neue,Arial,sans-serif" font-size="7.5" text-anchor="start" fill="#7D6808" font-weight="normal" >table sensor</text>
<text x="240.0" y="1460.4" font-family="Helvetica Neue,Arial,sans-serif" font-size="8" text-anchor="middle" fill="#7D3C98" font-weight="bold" >Social</text>
<text x="240.0" y="1471.0" font-family="Helvetica Neue,Arial,sans-serif" font-size="8" text-anchor="middle" fill="#7D3C98" font-weight="normal" >stimulus</text>
<path d="M138.0,1312.6 Q168.0,1262.8 229.8,1248.0" fill="none" stroke="#2471A3" stroke-width="2" dash="5,3" marker-end="url(#ar-b)"/>
<text x="193.0" y="1250.8" font-family="Helvetica Neue,Arial,sans-serif" font-size="8.5" text-anchor="middle" fill="#2471A3" font-weight="bold" >sucrose reward</text>
<path d="M342.0,1333.0 Q372.0,1406.7 305.3,1475.1" fill="none" stroke="#7D3C98" stroke-width="2" marker-end="url(#ar-p)"/>
<text x="380.0" y="1372.8" font-family="Helvetica Neue,Arial,sans-serif" font-size="8.5" text-anchor="middle" fill="#7D3C98" font-weight="bold" >social exposure</text>
<text x="380.0" y="1385.8" font-family="Helvetica Neue,Arial,sans-serif" font-size="8" text-anchor="middle" fill="#7D3C98" font-weight="normal" >(10 s, no reward)</text>
<text x="136.0" y="1302.6" font-family="Helvetica Neue,Arial,sans-serif" font-size="8" text-anchor="end" fill="#2471A3" font-weight="bold" >Port A</text>
<text x="240.0" y="1227.8" font-family="Helvetica Neue,Arial,sans-serif" font-size="8" text-anchor="middle" fill="#1E8449" font-weight="bold" >Port C</text>
<text x="344.0" y="1302.6" font-family="Helvetica Neue,Arial,sans-serif" font-size="8" text-anchor="start" fill="#C0392B" font-weight="bold" >Port B</text>
<text x="240.0" y="1410.6" font-family="Helvetica Neue,Arial,sans-serif" font-size="8" text-anchor="middle" fill="#D35400" font-weight="normal" >door</text>
<text x="522.0" y="1212.0" font-family="Helvetica Neue,Arial,sans-serif" font-size="20" text-anchor="start" fill="#2C2C2C" font-weight="bold" >E</text>
<text x="750.0" y="1214.0" font-family="Helvetica Neue,Arial,sans-serif" font-size="15" text-anchor="middle" fill="#117A65" font-weight="bold" >Social Memory</text>
<text x="750.0" y="1231.0" font-family="Helvetica Neue,Arial,sans-serif" font-size="9.5" text-anchor="middle" fill="#666" font-weight="normal" >Familiar vs. novel conspecific — passive exposure + investigation time</text>
<line x1="515.0" y1="1238.0" x2="985.0" y2="1238.0" stroke="#DDD" stroke-width="1"  />
<rect x="618.0" y="1248.0" width="204.0" height="149.6" fill="#F6F6F6" stroke="#2C2C2C" stroke-width="1.36" rx="5.44" /><circle cx="618.0" cy="1322.8" r="12.7" fill="white" stroke="#2C2C2C" stroke-width="1.2" /><circle cx="618.0" cy="1322.8" r="10.2" fill="#D5D8DC" stroke="#2471A3" stroke-width="1.8" /><text x="618.0" y="1323.3" font-family="Helvetica Neue,Arial,sans-serif" font-size="9" text-anchor="middle" fill="white" font-weight="bold" >A</text><circle cx="822.0" cy="1322.8" r="12.7" fill="white" stroke="#2C2C2C" stroke-width="1.2" /><circle cx="822.0" cy="1322.8" r="10.2" fill="#D5D8DC" stroke="#C0392B" stroke-width="1.8" /><text x="822.0" y="1323.3" font-family="Helvetica Neue,Arial,sans-serif" font-size="9" text-anchor="middle" fill="white" font-weight="bold" >B</text><circle cx="720.0" cy="1248.0" r="12.7" fill="white" stroke="#2C2C2C" stroke-width="1.2" /><circle cx="720.0" cy="1248.0" r="10.2" fill="#D5D8DC" stroke="#1E8449" stroke-width="1.8" /><text x="720.0" y="1248.5" font-family="Helvetica Neue,Arial,sans-serif" font-size="9" text-anchor="middle" fill="white" font-weight="bold" >C</text><line x1="618.0" y1="1397.6" x2="667.3" y2="1397.6" stroke="#2C2C2C" stroke-width="1.36"  /><line x1="772.7" y1="1397.6" x2="822.0" y2="1397.6" stroke="#2C2C2C" stroke-width="1.36"  /><rect x="651.0" y="1394.2" width="16.3" height="20.4" fill="#D35400" stroke="#D35400" stroke-width="1" rx="2" opacity="0.65"/><rect x="772.7" y="1394.2" width="16.3" height="20.4" fill="#D35400" stroke="#D35400" stroke-width="1" rx="2" opacity="0.65"/><line x1="667.3" y1="1397.6" x2="667.3" y2="1450.6" stroke="#2C2C2C" stroke-width="1.02"  /><line x1="772.7" y1="1397.6" x2="772.7" y2="1450.6" stroke="#2C2C2C" stroke-width="1.02"  /><rect x="667.3" y="1405.8" width="105.4" height="6.8" fill="#F39C12" stroke="none" stroke-width="1.5" rx="2" opacity="0.4"/><rect x="667.3" y="1435.7" width="105.4" height="6.8" fill="#F39C12" stroke="none" stroke-width="1.5" rx="2" opacity="0.85"/><circle cx="720.0" cy="1532.2" r="81.6" fill="#EBF5FB" stroke="#2C2C2C" stroke-width="1.36" /><circle cx="720.0" cy="1532.2" r="2.7" fill="#2C2C2C" stroke="none" stroke-width="1.5" /><line x1="720.0" y1="1532.2" x2="777.7" y2="1474.5" stroke="#888" stroke-width="0.8160000000000001" stroke-dasharray="5,3" /><line x1="720.0" y1="1532.2" x2="777.7" y2="1589.9" stroke="#888" stroke-width="0.8160000000000001" stroke-dasharray="5,3" /><line x1="720.0" y1="1532.2" x2="662.3" y2="1589.9" stroke="#888" stroke-width="0.8160000000000001" stroke-dasharray="5,3" /><line x1="720.0" y1="1532.2" x2="662.3" y2="1474.5" stroke="#888" stroke-width="0.8160000000000001" stroke-dasharray="5,3" /><ellipse cx="720.0" cy="1484.9" rx="7.2" ry="4.8" fill="#E67E22" stroke="none" transform="rotate(270,720.0,1484.9)"/><circle cx="720.0" cy="1475.9" r="3.9" fill="#E67E22" stroke="none" stroke-width="0" /><circle cx="723.3" cy="1475.9" r="2.3" fill="#E67E22" stroke="none" stroke-width="0" /><circle cx="716.7" cy="1475.9" r="2.3" fill="#E67E22" stroke="none" stroke-width="0" /><path d="M720.0,1492.7 Q724.2,1496.9 722.4,1501.1" fill="none" stroke="#E67E22" stroke-width="1.0" /><ellipse cx="720.0" cy="1579.6" rx="7.2" ry="4.8" fill="#1A7DB5" stroke="none" transform="rotate(90,720.0,1579.6)"/><circle cx="720.0" cy="1588.5" r="3.9" fill="#1A7DB5" stroke="none" stroke-width="0" /><circle cx="716.7" cy="1588.5" r="2.3" fill="#1A7DB5" stroke="none" stroke-width="0" /><circle cx="723.3" cy="1588.5" r="2.3" fill="#1A7DB5" stroke="none" stroke-width="0" /><path d="M720.0,1571.8 Q715.8,1567.6 717.6,1563.4" fill="none" stroke="#1A7DB5" stroke-width="1.0" /><ellipse cx="720.0" cy="1424.1" rx="6.9" ry="4.6" fill="#555" stroke="none" transform="rotate(90,720.0,1424.1)"/><circle cx="720.0" cy="1432.8" r="3.8" fill="#555" stroke="none" stroke-width="0" /><circle cx="716.8" cy="1432.8" r="2.2" fill="#555" stroke="none" stroke-width="0" /><circle cx="723.2" cy="1432.8" r="2.2" fill="#555" stroke="none" stroke-width="0" /><path d="M720.0,1416.6 Q716.0,1412.6 717.7,1408.5" fill="none" stroke="#555" stroke-width="0.9" />
<text x="776.7" y="1413.8" font-family="Helvetica Neue,Arial,sans-serif" font-size="7.5" text-anchor="start" fill="#7D6808" font-weight="normal" >door sensor</text>
<text x="776.7" y="1443.7" font-family="Helvetica Neue,Arial,sans-serif" font-size="7.5" text-anchor="start" fill="#7D6808" font-weight="normal" >table sensor</text>
<text x="720.0" y="1460.4" font-family="Helvetica Neue,Arial,sans-serif" font-size="8" text-anchor="middle" fill="#E67E22" font-weight="bold" >S1: Familiar</text>
<text x="720.0" y="1604.0" font-family="Helvetica Neue,Arial,sans-serif" font-size="8" text-anchor="middle" fill="#1A7DB5" font-weight="bold" >S2: Novel</text>
<line x1="712.0" y1="1490.9" x2="728.0" y2="1490.9" stroke="#117A65" stroke-width="1.5"  />
<text x="720.0" y="1482.9" font-family="Helvetica Neue,Arial,sans-serif" font-size="7.5" text-anchor="middle" fill="#117A65" font-weight="normal" >investigation</text>
<text x="720.0" y="1410.6" font-family="Helvetica Neue,Arial,sans-serif" font-size="8" text-anchor="middle" fill="#D35400" font-weight="normal" >door (open)</text>
<text x="890.0" y="1248.0" font-family="Helvetica Neue,Arial,sans-serif" font-size="9.5" text-anchor="middle" fill="#2C2C2C" font-weight="bold" >Presentation</text>
<text x="890.0" y="1260.0" font-family="Helvetica Neue,Arial,sans-serif" font-size="9.5" text-anchor="middle" fill="#2C2C2C" font-weight="bold" >sequence:</text>
<circle cx="890.0" cy="1264.0" r="20.0" fill="#EBF5FB" stroke="#2C2C2C" stroke-width="1.2" />
<line x1="890.0" y1="1264.0" x2="904.1" y2="1249.9" stroke="#AAA" stroke-width="0.8" stroke-dasharray="3,2" />
<line x1="890.0" y1="1264.0" x2="904.1" y2="1278.1" stroke="#AAA" stroke-width="0.8" stroke-dasharray="3,2" />
<line x1="890.0" y1="1264.0" x2="875.9" y2="1278.1" stroke="#AAA" stroke-width="0.8" stroke-dasharray="3,2" />
<line x1="890.0" y1="1264.0" x2="875.9" y2="1249.9" stroke="#AAA" stroke-width="0.8" stroke-dasharray="3,2" />
<circle cx="890.0" cy="1251.6" r="5.6" fill="#E67E22" stroke="none" stroke-width="1.5" />
<text x="890.0" y="1296.0" font-family="Helvetica Neue,Arial,sans-serif" font-size="9" text-anchor="middle" fill="#E67E22" font-weight="bold" >S1</text>
<circle cx="890.0" cy="1326.0" r="20.0" fill="#EBF5FB" stroke="#2C2C2C" stroke-width="1.2" />
<line x1="890.0" y1="1326.0" x2="904.1" y2="1311.9" stroke="#AAA" stroke-width="0.8" stroke-dasharray="3,2" />
<line x1="890.0" y1="1326.0" x2="904.1" y2="1340.1" stroke="#AAA" stroke-width="0.8" stroke-dasharray="3,2" />
<line x1="890.0" y1="1326.0" x2="875.9" y2="1340.1" stroke="#AAA" stroke-width="0.8" stroke-dasharray="3,2" />
<line x1="890.0" y1="1326.0" x2="875.9" y2="1311.9" stroke="#AAA" stroke-width="0.8" stroke-dasharray="3,2" />
<circle cx="890.0" cy="1313.6" r="5.6" fill="#E67E22" stroke="none" stroke-width="1.5" />
<text x="890.0" y="1358.0" font-family="Helvetica Neue,Arial,sans-serif" font-size="9" text-anchor="middle" fill="#E67E22" font-weight="bold" >S1</text>
<circle cx="890.0" cy="1388.0" r="20.0" fill="#EBF5FB" stroke="#2C2C2C" stroke-width="1.2" />
<line x1="890.0" y1="1388.0" x2="904.1" y2="1373.9" stroke="#AAA" stroke-width="0.8" stroke-dasharray="3,2" />
<line x1="890.0" y1="1388.0" x2="904.1" y2="1402.1" stroke="#AAA" stroke-width="0.8" stroke-dasharray="3,2" />
<line x1="890.0" y1="1388.0" x2="875.9" y2="1402.1" stroke="#AAA" stroke-width="0.8" stroke-dasharray="3,2" />
<line x1="890.0" y1="1388.0" x2="875.9" y2="1373.9" stroke="#AAA" stroke-width="0.8" stroke-dasharray="3,2" />
<circle cx="890.0" cy="1375.6" r="5.6" fill="#E67E22" stroke="none" stroke-width="1.5" />
<text x="890.0" y="1420.0" font-family="Helvetica Neue,Arial,sans-serif" font-size="9" text-anchor="middle" fill="#E67E22" font-weight="bold" >S1</text>
<circle cx="890.0" cy="1450.0" r="20.0" fill="#EBF5FB" stroke="#2C2C2C" stroke-width="1.2" />
<line x1="890.0" y1="1450.0" x2="904.1" y2="1435.9" stroke="#AAA" stroke-width="0.8" stroke-dasharray="3,2" />
<line x1="890.0" y1="1450.0" x2="904.1" y2="1464.1" stroke="#AAA" stroke-width="0.8" stroke-dasharray="3,2" />
<line x1="890.0" y1="1450.0" x2="875.9" y2="1464.1" stroke="#AAA" stroke-width="0.8" stroke-dasharray="3,2" />
<line x1="890.0" y1="1450.0" x2="875.9" y2="1435.9" stroke="#AAA" stroke-width="0.8" stroke-dasharray="3,2" />
<circle cx="890.0" cy="1437.6" r="5.6" fill="#E67E22" stroke="none" stroke-width="1.5" />
<text x="890.0" y="1482.0" font-family="Helvetica Neue,Arial,sans-serif" font-size="9" text-anchor="middle" fill="#E67E22" font-weight="bold" >S1</text>
<circle cx="890.0" cy="1542.0" r="20.0" fill="#EBF5FB" stroke="#2C2C2C" stroke-width="1.2" />
<line x1="890.0" y1="1542.0" x2="904.1" y2="1527.9" stroke="#AAA" stroke-width="0.8" stroke-dasharray="3,2" />
<line x1="890.0" y1="1542.0" x2="904.1" y2="1556.1" stroke="#AAA" stroke-width="0.8" stroke-dasharray="3,2" />
<line x1="890.0" y1="1542.0" x2="875.9" y2="1556.1" stroke="#AAA" stroke-width="0.8" stroke-dasharray="3,2" />
<line x1="890.0" y1="1542.0" x2="875.9" y2="1527.9" stroke="#AAA" stroke-width="0.8" stroke-dasharray="3,2" />
<circle cx="890.0" cy="1529.6" r="5.6" fill="#1A7DB5" stroke="none" stroke-width="1.5" />
<text x="890.0" y="1574.0" font-family="Helvetica Neue,Arial,sans-serif" font-size="9" text-anchor="middle" fill="#1A7DB5" font-weight="bold" >S2</text>
<line x1="890.0" y1="1298.0" x2="890.0" y2="1304.0" stroke="#555" stroke-width="1.5" marker-end="url(#ar)"/>
<line x1="890.0" y1="1360.0" x2="890.0" y2="1366.0" stroke="#555" stroke-width="1.5" marker-end="url(#ar)"/>
<line x1="890.0" y1="1422.0" x2="890.0" y2="1428.0" stroke="#555" stroke-width="1.5" marker-end="url(#ar)"/>
<line x1="868.0" y1="1502.0" x2="912.0" y2="1502.0" stroke="#CCC" stroke-width="1"  />
<text x="890.0" y="1496.0" font-family="Helvetica Neue,Arial,sans-serif" font-size="7.5" text-anchor="middle" fill="#888" font-weight="normal" >switch</text>
<line x1="890.0" y1="1506.0" x2="890.0" y2="1520.0" stroke="#555" stroke-width="1.5" marker-end="url(#ar-t)"/>
<text x="890.0" y="1582.0" font-family="Helvetica Neue,Arial,sans-serif" font-size="9" text-anchor="middle" fill="#117A65" font-weight="bold" >Measure:</text>
<text x="890.0" y="1596.0" font-family="Helvetica Neue,Arial,sans-serif" font-size="8.5" text-anchor="middle" fill="#555" font-weight="normal" >investigation time</text>
<text x="890.0" y="1609.0" font-family="Helvetica Neue,Arial,sans-serif" font-size="8.5" text-anchor="middle" fill="#555" font-weight="normal" >S1 vs. S2</text>
<line x1="926.0" y1="1244.0" x2="932.0" y2="1244.0" stroke="#AAA" stroke-width="1"  />
<line x1="926.0" y1="1484.0" x2="932.0" y2="1484.0" stroke="#AAA" stroke-width="1"  />
<line x1="926.0" y1="1244.0" x2="926.0" y2="1484.0" stroke="#AAA" stroke-width="1"  />
<text x="936.0" y="1364.0" font-family="Helvetica Neue,Arial,sans-serif" font-size="9" text-anchor="start" fill="#888" font-weight="bold" >×4</text>
</svg>